<mxfile host="app.diagrams.net" modified="2024-01-16T09:48:05.944Z" agent="Mozilla/5.0 (Windows NT 10.0; Win64; x64; rv:121.0) Gecko/20100101 Firefox/121.0" etag="NNLW6b6bN40g-qjCT16i" version="22.1.18" type="github">
  <diagram name="Page-1" id="TyWb5G7oyPmBL-mzQO1o">
    <mxGraphModel dx="794" dy="414" grid="1" gridSize="10" guides="1" tooltips="1" connect="1" arrows="1" fold="1" page="1" pageScale="1" pageWidth="850" pageHeight="1100" math="0" shadow="0">
      <root>
        <mxCell id="0" />
        <mxCell id="1" parent="0" />
        <mxCell id="D-iclvhkbim6grYP5wYa-4" style="edgeStyle=orthogonalEdgeStyle;rounded=0;orthogonalLoop=1;jettySize=auto;html=1;exitX=0.5;exitY=1;exitDx=0;exitDy=0;" edge="1" parent="1" source="D-iclvhkbim6grYP5wYa-1">
          <mxGeometry relative="1" as="geometry">
            <mxPoint x="80" y="180" as="targetPoint" />
          </mxGeometry>
        </mxCell>
        <mxCell id="D-iclvhkbim6grYP5wYa-1" value="&lt;b&gt;Developer&lt;/b&gt;" style="ellipse;whiteSpace=wrap;html=1;" vertex="1" parent="1">
          <mxGeometry x="30" y="30" width="120" height="80" as="geometry" />
        </mxCell>
        <mxCell id="D-iclvhkbim6grYP5wYa-7" value="" style="edgeStyle=orthogonalEdgeStyle;rounded=0;orthogonalLoop=1;jettySize=auto;html=1;" edge="1" parent="1" source="D-iclvhkbim6grYP5wYa-2">
          <mxGeometry relative="1" as="geometry">
            <mxPoint x="240" y="220" as="targetPoint" />
          </mxGeometry>
        </mxCell>
        <mxCell id="D-iclvhkbim6grYP5wYa-2" value="Github" style="rounded=1;whiteSpace=wrap;html=1;" vertex="1" parent="1">
          <mxGeometry x="20" y="190" width="120" height="60" as="geometry" />
        </mxCell>
        <mxCell id="D-iclvhkbim6grYP5wYa-5" value="Commits code" style="text;html=1;align=center;verticalAlign=middle;resizable=0;points=[];autosize=1;strokeColor=none;fillColor=none;" vertex="1" parent="1">
          <mxGeometry x="80" y="118" width="100" height="30" as="geometry" />
        </mxCell>
        <mxCell id="D-iclvhkbim6grYP5wYa-8" value="" style="sketch=0;outlineConnect=0;fontColor=#232F3E;gradientColor=none;fillColor=#7AA116;strokeColor=none;dashed=0;verticalLabelPosition=bottom;verticalAlign=top;align=center;html=1;fontSize=12;fontStyle=0;aspect=fixed;pointerEvents=1;shape=mxgraph.aws4.iot_analytics_pipeline;" vertex="1" parent="1">
          <mxGeometry x="240" y="199" width="78" height="42" as="geometry" />
        </mxCell>
        <mxCell id="D-iclvhkbim6grYP5wYa-9" value="triggers pipeline to build,test image" style="text;html=1;align=center;verticalAlign=middle;resizable=0;points=[];autosize=1;strokeColor=none;fillColor=none;" vertex="1" parent="1">
          <mxGeometry x="155" y="148" width="210" height="30" as="geometry" />
        </mxCell>
        <mxCell id="D-iclvhkbim6grYP5wYa-10" value="" style="shape=image;verticalLabelPosition=bottom;labelBackgroundColor=default;verticalAlign=top;aspect=fixed;imageAspect=0;image=data:image/webp,UklGRqyMAABXRUJQVlA4WAoAAAAIAAAACwQAAgMAVlA4IMyLAADQeAKdASoMBAMDPm00lUikIqchItS7UOANiWdu+9o1nYLvpsIC8+zHd+5n1+528i3QCxHtQm4b9v/V8EOb/iv8n/C/uf7a3Kve973/B+vR/U8NPev+Z5XvOf/j9e3+p/6/+T/snxB/rH+F/6f+Q/f/6C/6T/Wf129dH9nfe3/Yv+V6jP5n/f/2e/83wtf8T9svdh/Zv9d+UHyDf3X/N///2wPVx/zHqK/tV///Xa/eL4Z/6v/yP3L+CL9mf///vP/T3cHSj+o/1z+3f4D9mfN5+yf2f/Af4r/Ff4n9hPbP8f+dft/93/x/+Q/wP/2/2v3xfTv9F4o+n/+x/j/Ur+Q/Y/8D/cP8r/tf77++P4M/h/9d+bf+j9K/ix/X/4r/E/s98gv45/Jv7r/ZP3E/wPz2fe9nNrf+3/2X+E9gX2A+hf7X/Cf6H/zf5H4yvi/9n/fPxj+Cv1P+/f7D/D/vF/evsB/l/9V/0H+G/dL/K//////eH+z/7v+q8oT75/w/+7/mvgB/mP9u/6/+K/1n7QfH7/zf6j/X/t37a/0n/L/+j/Rf7X9r/sJ/mn9m/6H+L/0/7Z/OX///+T8Dv3M///+6+FL9nf/1/vSFtZeORbIiIEBLKW6BvFW3HCWgl2/EDsbbivOQYBm0GzwOLfeG6EWORKvyD/XGopDaB2Np9Qee4rzkGAZtBs8Di+0DsbbivOQYBm0GzwOL7GYtW3x0c3SpSojn0F4VhXXWuao0+ZXpmmmmmmmmmmaq2Hh9kLzB8eQadVVVVVVVVVVVVVVVVVVVVVVVVVQLVF6M6yEV/iZi8+UbaRkMG+ygu1kBqzBMCix7UEHHnN+AwgYQMIFc+MZWEI74GSPaYUamAnB4QxdgZ1eukfXqfMrTKNlGyjZRso2UbKNjve4gU3aEJSVkHFHbsifbO/ECXnbCWmlF/sFxx5pPwPrweNSsi0u/Kgyk27D4rpOt8W+LfFvi3ma2Hh9kKj/EVGRlHazmASsQCKPezdUtNbv3e72NtxXnIMAzaDZ4HF9oHY23Fecgpv8I/YUgt0QCfPJVaSqHJugkPpmEDCBhAwgYIWxvQsEsi+rEwwkEuHgif6/t8HQG4Mjue/PWWt7sqqI7ezzvdAI/BbboI8o9cE64ZN+IE/lxxHpMzCBhAwgYQMIGEDBC2N6FgojvcX7vK6ZQn2jp1kWlW/gn/dbmrlAECMsE6Z7FZ9C2gNL0I6z5p6nx6Ohp86S5tz9TZFchhzxOhcq5kB4tqAjnZBTTKrVn+yHtZSeZHMjmRSd9eJzI5kcyOZHMjmRzIpWzehYNLaRzI5kQeH7QzwLq5K98/XJxeFvhB2/RbevKDXyU8PNSNlGyjY7/wXNRso2UbKNlGyjZRseFIfh9kLzCBhAwK+g5q+4abZ5qWxjTKOO/9Nemhl7lQx1IfrvvoqerfVvq31borOFAt8It6KW/hBg6JabRxBAhr5nd4CuVgajZRsoT7ZNofZxnMKq3Gn3nVgvcJ/AT+dieZhmYQMIGECuVcLzCBT5M6rRXKs/t2/gaj3m7Y2H2ipBghLopso2UZ3m0rlfxmaip/jWRFSO8BhAwgYQMH5kUPtmD6MUFxvwGEDAN8+2bXOxjucFtNe0VIMEJdFNlGyjSeVkbPYNiGxDYhsQ18t/9KWe6cQtEe/55LEWheU8mwqby1A+g9iS5KfEDSBZAFPcJj7YLPt8NANsHb508WbDCBg/L8BEtWIHF9gq+si92g2eBxfaB2NtxXnIFufby4sJNv+mMpp2UkR8Fif4FmNu5B+JUCipcknImKnMYf2xzY37d9aglOJDGPmkyIimfiteBDMi+2szv//DPlVk4qsyfdOxWCZbSJz6vfNwZYHW8pCzIzehYNLPxDYhr5b8x9NzR5/7+wobHPQAaUYKTiWYtavJrPtKiy8U1nG3qU7eGAB9YCpYnh999996Nd/ukmFYjRO0czBAjok1lKK61sCL2G8HEb6eAwiGME0L+vwZt2AuTa/tPyNsPvAmsLRMqvvMH/Omeb2cGzzVaQYIS6KbKNlGkx9T/TuZI/sG/2xQEbupWEgl/iVQOtfpXKQusj7aC3bvwPQb/jLsMblxR9u55M5WPEBRhsZ8QMY+NNxGgKOx5Jg19wGxDXy3/wXGVoaKS00HGRHUGu32injGZ810YzSow4wD7gCxeb2MZ1b5Y9fPLcrsEgBnG3ZeZcHnxoF473CAzjlR5qbTAyaRzDvevxb4t8OJOjJhIxQfyVGeCM8ltbYEtY+R+7/BQ08vZDk2SHlZSUTKNlGyhQkD67+tzm99oeuimlgV/Y+DLd2Xh8mEueRoRFZnCidi9Niw4eAbUbpG0Z5jSmymk4jK5BhfSTZZSJYX40Sn0qSUuOn5WMgTM9Mntm0azIzehYNLPxDYhr5b7vbmQ92ekp3aVVUTORdfDFLXEWB9rGZ22NjpkyczCBhArlXCdZiTvbZ4xEkWMXi94BxKxlDfSmBCopHtKiUrnSug6nG8UwRhIyEFfzLb8SxeLajPJ16PSIAJRg5OxQR/M9VOjMc8RtVVzSrUSr4xlYQkhjYhsQybA/Ez8UA+Ra8eGOm/cHj9fl2cKxn16V9W+rfVuis4NDnW8+HtxV87PC3BmXrLioTe3do4rafdXkSCfomdFuTSd2xXNzk5J/zYMo0SSvToMfmc25oeDUaxjflHH94iAJIb31xyFnE1wmQQvI4cByrP7dvqV/3D1M+ffhAwgYQMIGCEuHcv06LbRyge8x5u1gLgCLP7JRl6eJcVvlOm3JG8DJ2F/6JDNHpxnvbSIrxUOkdQbcNmS/VpbzaXDlBnnl7IWyF1iqBZH0S060SBHoQaM0yYOHvzhXG7XM5Whio0M//HbfjiuVLyPFZ5HnWWQDKg4Z4qAtIvBDFRoZ/+O2/HFXnO5245zwXBj7nPT9NhP+x1j01dYWHvzjUWR4By4ZSqBExTzAk/jN6Fg0s/ENiGSfaSdYUjhYeC/vARWCGXU7tC5oAt96Rp0qNCfPnTZcqRyHcqW5xMTgH0SaF7Q1GyjSeR6QnB+ZFuZRso0iyUD0GpbFLbDDxN2gk3uLZTOenMnFF0YK/lK+SxuC4snmo709PYI8+2L2s1HRGNinj4rD5CFQ5YC42ihMF9vyVJDabGw8gEIPjnhSz8QyYtE5WjNQ8Q2H2iVfGMrCEkMbENh9O7mtgx8rZjowdEzAWLSaEyWh6B8tjcxpsbEMnHcqW5lGcCzbUjK0knEeOZHMPHyFIfh9kLzCBhArZ3+DDiQQEhWW/qhk4PJoukbBj5Y6va09eyNiGxDYhr5b/4Lmo2O6a3w3+CnMb6v3BXLnGTzy6lsIPUXFYQkhjYhsPp3cr3CkUSEW3nGEgMoZWmUbKNlChIH14nMij5laST+UD7fFx6UmZg0J9M3oZWmOzdwgUe4F90xcIg64ZN+IHY23FecgRfCdLh6TMwQVmRxezFIFNUTrhk34ELzFvx+Wxk46gQv8QOxtuK4F+JxNiFG7nl6MPyEbvRT8Lj7vhlc/6ANhn+qdjdsWJwfdU7G7YsTg+6p2N2xYnB90J4C6HcqW5lGkn8W8xJ4hzgFdclDFOhXPPcZydqSXEZ+Wxk466XjKucVtxXnIL+Jcxnoc++Jly2qTqiCq1Fw4NINyYEYTt1wQvl8p6PIga6z0P+3BXQ4JLK/FyAJPsjVP/mmMv9F6sZZKGal01NPM5DxAprGYdEl1E6XD0mZggrMji9mX+69hdGI1NQTlvKzki2F2NIQarMBzN60AdmyimGamq08oAkBDCop1+injToTRdirTHf+C9M/ENfLf/BdF+gNopkeOT6FeqQwEK6Td4lReeINQsFr7u6OgM7l0CscJjs2Qt53/icyP8HJL2K9v3Dxvm4D4BtUOgMNheBBKB9a9dYhkxaJytGYb+2Q6MdZtCo3uSORN/m1gBUVNn6K6eEd6cnXRAbur6uAq3cOo088rI18t/9eJSJcKlRvNwjOtRZLYY4td72FMHxUuHcwcEgTU/a27UYANgakdkgkc0omUgUIVKB9a9dYhkxaJyOSh5NIXlNrSzI+D3U1hH7tMbkWCPgnHpvJNDQrcZuiYXCtoM8rI18t/9eeL4BBGkUcegFrVtNkVT9lAC3SdsR4P7Vb2DZh7kEMla2iZlWuZit8W+LfDiUD6166xDAYGC+HxbxdGpjXwf7xNR6rw8kfJKkMYtr1ypEh+BYoTp0MEgQ1jgU70L1/gQf6xH7I18q5LS0mN9oa0392CQPryqjfRGyjZRso2UaTXf7mvQHcGH3fy78i0QZtmyBFT4/vjw/hpyy/7OPAMbFRqNqtruhRi0imtmthsyY7SIMXKBF3vryV2A7/CdVPPVuO9h3KN1G9VDblDhEmz3Mo2MQ2VxiJKddlN1OZtc9W7IAva/3+Uho0L/Gk/3oike7O9oSRYIpAANdOhU4D6iv+lFYiscm3QiS/WeEdYWQKFQUhg2Ya3H3RmOcUlGtrINigAZe+EOuq6Yqtmkvm6/qOAwQseII+dIJJOq5qK/KToBJPa6c1b9HG4USlf48QwlCYFpZFeRD2TIZJnYudHpOAXgE/FXLCh8xRnumi4IrUpg/ViEhIDGy6XXqh8wPGdFTEEKrIbQQ5/nvYpYb82Bz0LGi6pQ54Ki8wMz1WNBMed5/ZPxdl07+FukSimjK53D21QwFK9it113GH6LXnhz741eQ6PwlzvLYlXVjbzQQRBCUrDoxe4u6htnzpgbO8ko20AHmXLw7mJjSWN2LSOfJlraFvGTEO3QpXAsowamxvzxF5f41nYjYuPkfUlO8XQMD8/NnvEEzg+zTQIUhg2XSs4UCxfkh/sftuEEPYfkvfaoHX1rus3MPrLPfYGMrCMNzDdirJQpAa5VTMXJeqo61GRyBCgBI5FhU1yGktW+FnFTG/zspmQ9v94n0bQMbN/KovF3t7sF4j+Iz4D3BojIL9tmAnwFH3/eY2R+WMui5s4g982HcqUPyDQ78sQ88/IuITrvgL6xt2eZ9bVpt+usrE7kkjauggdO5IWJFpnWNY/w1bdyjYFAot+d5TkPt/SXslctdewbLpm89vrY+J/pQBFdFIOa7djBSbEyIbD7Qyp+0ddY+tK2xVuOQNJXa7EbBx1GwT8TB3QpR1U8Leu+f3nA3K1mhsnnONi9Cob/tIIWrPhji4bFbCE1QPwyRdXRAJ7iiptKB9a9il/qqgwIRCXyLOkBiLR7MsSXSAHZd7BsumbgSj90qHKnMvQ2F49vJBlDPX+v31A4ypWCDENMrFxmXulGzm0TSD9k6whs3EwX2HN0PQ9E4wUsUyZAeYPSOZJCbQc9aK7DNF01T7RnwAolP08qmuq874uL49fdlAA90d1WlaU0mFEsT36/1uoILP407xuqIR5qLCG7mpDnS4dzBwRwTaDdOayjJdi+Ri0GAdV2z/Ffhns3iR0qGmtjCvlHZYsnUZq4BhTgOLs6WcYD5YWsKYHGnqlFUo7muFzMO3m7dKOyumA5XXia85bDqGq4Art/w4sMBaulCNQuJfhOL1ws9Z/EeGVmwszPmE2IUKszSCH/Js0O6mpt6rv8VE8Om1ZUxcePVSFRsRvChLAm8zU4T7K4RRqgC9llyBT7KWso9cE6KIXv3TF23FebirTxRHZ7o0Gb5VOVCWd4/qRzSanuQVvyPvLmYKS8Co7Rwyb3wOxtuLLpN+IHY23FcCYfXlsyKM/5R/R/gCitgiJEIzJmH1Dh73vU8888xLHpp2dmjvgnRRC9+6Yt/kkg7JqRyKqjn/rvcW+LV3xTw8cyOsfG/Vw91MLaQ6FnSlw+7TxGo2UbKNjdmXagTs2PFV3epkYlnEFscaHjmRzI4WmVOAKckjkGAZtBs8Di+0DsbbivOQYBk7PMQS0a31bjAinENr9rxM3US0TMgiaWM5coTI3TpE30SMF2CTc/+u1E5vwGEDCBhAwFZuVJ+DiWEGAZtBs8Di9rpi3+SSDsmpHIqqQrfWumLf5JIOx1f9Otgi8zB+V8MzCBhAwgYQMIGEDCHfhAwgYQMIGEDCBhAwgYQMIGEDAeUtHqJVDi+ICTC5jd0CGxDYhsQ2IbENiGxDYhsQ2IbENiGxDYhsQ2IbENiGSezfy0/jxDYhsQ2IbENiGxDYhsQ2IbENiGxDYhsQ2IbENiGviVxuiB2DROb8BhAwgYQMIGEDCBhAwgYQMIGEDCBhAwgYQMIFA4F747JqUvUE4TGFD4mh5yU9kbENiGxDYhsQ2IbENh38T4HRjYnzwZXGR0lv2Wu1Za09cqaii3xEqVIfW6Y1sO7nEcPwRGpsCr40qiNiGxFDy2efxL90jq8S7pI1BLii4rTKNlGyjZRso2UbKNirqxeJqr0YbEvFF8gOR3LBl+dFFhVCtxvquYD5P9/2I2rFmD7A3ByX5fwhDHBr89AHn7B07+wQLK2HYiGlDII1vSN4DAbWya3sQv726Bbx4b5ECixb+wyQZgedB3RxPttFxmiKGuViqNRiqFKBIa0hpHOrBAxSIrzvnwO+NgkE1zuQhEpY8tZDAl7kELY1Vk7GSS+26nIW2NvfqsZIWXWbb925yy6U5NpuN2+M3Ctci8odE60knIZk9XcbiSNdOOVUwx6BbQVrDZNB4V1rvV5qlE5/8RwUhNnVE7s6tHHfUWkIJpX8i2ThAwgYQMIGEDCBhAwgmpmPaalpk9W+rfV2YKiGic337SaqObSFb610H0UFY80YcyOZHMjmRzI5kcyOZHMjmRzI5kcyOZHMjmRzI4AAAPvuZEMf7Lc0qvf5DfdSng62vDzahzX3TrhhNuvoBPsaZERs/q6+bS4+clKEXuQyjT7iTsH0UlkSJIKxkEFrAjyK7y1tl96vflb+uOjPUMj3RzIRhXkBsRG7kRvdTJWppyYrEMEkTkcy8e0OjsTypijtdrK6yNgg9xex/MU0a5aVtLUxaQV2pIBRJZXH/05cNuYrmrlcke1SZkOwG+wwwcYT6L7u56eRzMN6yQkLTpT4DZ7948velbUtIfn5+KP5U43crESQizufTaqqgzn2qxvME7eq36A3n65xaQU+DZaeV7ZLm06OshP1IzXofEsb9D4ljfofEsb9D4ljfofEsb9D4rBNLHThAVSPSmkv0yl62i1qMm+ZL+M5UeW9KwhuqIsJxq0JBCfFySXFE3PJ4xfkVe6NgEUH0JMmVfs11VYi7vc8zUob8aBbZKsXQUZXGU/D7GweRsA7cNykKPwArC0vj3FNdAXpH6q2ar+lg5nGkQzC33jMf9r+cWQviVv06ekIef+FWThcNz3I4IBIe2KONboopGbH6I+Y/WJcyatzDgllR20j9Q4YLP/wquJczgmdy/ccB/NgJ3Z2L7yOhbimI/yAAAAu3cF1p5AAD7x22ElBcHHh2eWa7WuLVH7OjhOTnDKS/7isphaS79Ox60+M0rOFhytwJ7A5KUo3x1MS/ZBnBJfPDboAqztariECcxZZ+DdlrK+cxjv5qceJHmHH5Y3LEyJLIzlHhUIbUGojMGze7ViAhfNhupHaFgZchnV36xVWEzQ3BBmSeVsK2uAJdxZzJxNaiN3n7FljafnA3dyzQBsrp6lseSDkZbFAnLbneThb/sAo1lyEigAd77QgGMm8HBLrKNcl7gTUpTOCNLRO36Ap+YSXzwC9yhVdkHBofb+XKtKy66U5K0PoGvXgAAmHa3Deeke8hn+xHMHq5B9I3FszpLMTsgPzRulotliZc8ygQAEIgvd4KUs4aQRkuG/6m9nineFxcVv8z95kuKs5e7j2XDk1olLra+p/foIrm2ruL/EYqLo1xOYHu8VdqRMtXVnvB8lCNphrOBNDMEZXLPqS5ijYK7q4OygbTybkTysVx8IsiGOVv/Da1BZBd7p5zI8q5RF9Upk2k1KIdULGkAY9p56KkpD/smsyiL4LDL5Hx84QouTKOcvycXaB5iIsRXuym/aXNS8hP/YANVAa9eymAopVUSI0331uhx/44AE0SsR81/Ra2HDo4BhjJ8WcHzDf1eVc1k8SPcvuE9KDSeu8ypmM/3IrOAY7b5y55cq2tj8bqscH9BIgOG+xjrb9DAAAKL95ymK+CvNRhhySH2Ft+gQuR9rFl6Z9EUeZ5cql4UlV458/i0fuYqb6e+w6FP6nVmX3r2ceeF0iJjjBNhWOEIw1PrJatdhJ1q0LZuoE+Ify+1FN25WE3s0IMDXjHbGIFRsi8iLXcjo7Fd6AlzNf5PqyYYxg7Nn92jHy4xjvofE2j23CnysDHTH6lqOCh1gtzhlnOajo2x70GsY+YsuprDzt9DjKQhrNFoDfT7Y//g3xhU6e0fW/lKJ26DGwPzJ6nNo/HP+c9vtp6VLzEMIH1ZlrfHi8lCOX27sGLkPlUQYwi/I+hRSWo5LByw6TcsU9Qc4rdm1cTB9OWjl18FjP65PXfqvBxqNfbAEqUHX0H0fnHU2r2ODfULZqNvR25mePjHmIwHHN0xkLNZyjJoaSucZC+6xspLScNTK3C/zcFoJcni6q4tSLZAcTsQf5NZKNYvGSiYJecuAJma3hsFjh26897yvz3QwFCrobfPeEsayEcO6+HQpydiKBthMZrAGpGkrZDHUVu6vp2aF60nQgjjVdAuktFcdqhvnXK+PLs/cZnYlTRBmqwY767WZbIT0scQYILmtM/rGkk88eLKdq2WdzMfU8ooHsFwABMmN3wq+V5tAeYSo8W/taXU42Nekf59Es3IbgIlpMHHcNCnmHYvPeTr3pWu/WJ44kswMiDD21iWy7eQw5n8K1rzs+kEOuUDh42y0FBTUkWg25kSr7X0zc8e0LYxosXmin1eXc64X9B4cSB/CfaVpuW+cH75qwmU4mWYQNxev9jKVBWN8mddufiocYT0urOmgpc0P/pQlwZaA/7luGY6yPjmqs4M3Tz1GuroLitTNj2D/KC1YY383vFj5eOzgigYnza4CLW1q+gFezVuCpVhYG6naK93HUCEyuz36CWocOcG0j+03MNJv4NQ8YnswoS/sV0/ash3HOra1LrT0sXlQAH2Ia8BZfFpYwdMZxy9alPBft/HHp+loQ+/4nxm4ajdsQAf9YgfvKSQgcwvZwQUdMEgtgeGouCrZTQk1zaB5Eae0da+9hIuHLhuYUp9zvzUwai2FbNodL9N0GPEkT6qlPUG/gSpqN8NmOKOkwAA8RD14pzesPqEYD+4lPpqi5/yvhNq423vhb7WUKcMAVagT+NskpoORkXeGjuTgOxLoTgE/PANIEXfx1DHlwBhaAHYK2MsABvJkGmqChycSH/mJmAAY0ILas8pUV0MvBf7vhaFw9e4H2Rj7Mf/qwopHnXiaIdGCJT7moAEN1jd8AvgbL7JFTUBbuk4kDtrtcLO/xJdH7KcDf/1XlTQ2pm19dMTtePPKYmQgEQWVhLSSFWJdVAtfUk1ORzDN0mORp9S8YM2t0yxyQe9lPAfteEV/nIKrTnUD1kJn4WW/CDyuTHaAuBSx42e8qaIVRUuxgL/FlQvZ5B/f+YPiW2RkliljfofEsb9D4ljfobnejEiCn7EQCONJZXKZKc5sGY0gny5YSj+UJNAAB/uspuRBdiCw705WnqHTha2U0+y+vvSdza6E42yGH851stAFw/11nnj/M7uYlMt65wlWbnLu/SnsKPPFf9GXuqqCkclclyBjWbAsmDzDvIDjRVc4w4oGxEf53HboNyBSCawV0tAeg+uanZ0AWHyoj/yNQLBDqh1k1pHyUaX5+iW+WEhIADtn3AM4pcYT+9XzoZI4L7lIbMEX0aM0FjhbnxrH4OJIMR7le0hDBY42QsMZigsXkPieQx8zSIB+wGjesfnRIFpB7Noav7ZIZqK+DLU/Y03MgYmn8pSq7EjsKOw7dY1gDGqJLDWVO/DhZautXYnDyXNADoAEzlce9yG/f4s4ymHZW3URHZi96+8YJsgCQl/XsH3QIPNAjp1CAxCOew4jbLDaPMfXPfXSJ5LvCZSUa6nhiTAj09O0zgNCDMbuAK1O1YqscpxYLB1zlbeCuzdTbLa/Etgb5BlJlwFOEciiB3PML0C4XHIAdp0Bm7l9IEejiKlamwXK5CdZUV46iItWJ/hgzWiPTvnlk/6Ec2LCsP0TsIotedrgO8AFPUQcDmoGIcKsd9WvZsMPb2eXU+Zkwsjo12Qo1/WB1s7adtsGw8PfpgrM+kz+L1v6fewBY2xH9cUNgYyVUBNmD0zBwmlfAy6MGT1QPsDtjVzDLmN0LOSMbyXu7eAhKj8F519GHi/8f1GNKzPR5LzS1IKe9S18tBhveLxw6GH6/fGroDddIPViOwRIBfUM+4MfflODMNonnk3PSUxkyPM1kj6tmuSYtAFJ3J/SbhQ5n8+FM3EKhasoZdeo/gf2EUlMoVM13UMroHw7NUfyLIZUol+cAIwCl1dN+hfnCUNb9bqFoPV7czl/WFXx3qN4m2lVq/+i8ayd2ugGx1SjoCQUBs/yOaCNfXWSmEGWvnxGxHKZnL+jclQDntHNBS/8A/WDYgJG+ol7UPfH8ky3Qq8FpOLLfYe+ddCbkoAcLmt0+n2xbJTY9g+b3kSQ+9C8VV8fjck3+a0b7o3f94AOrkrY0IbzeFdZy0T3UOcQkLpX+7mxvR21BZ3SxKL8j49WsdYYV5Z2tDvnGhJD69GCabhfGhjmVs2wpXQMRE+jZZWD4LhPlPNUQZDluD8nfYSQT0/uZLNaFpfXZBz+g13RmECtTrESLLuBOAJ0REJcki8my4AIK6ykJM+WgguE4/d18QzVhya27j6h4FQI9Dy989m5bWWk8QBDI0DyP+b8sDJukFB3pZxCH/wZfV3e30kfM1QDPDp5E4q76WBOeyxmIFTqmvPTpoHOZ06XaPLCWhkduk59bxtJnugD4ZRB1j+vBDzWPLoHgRoFwPa6MpT42MyDYZfm2zk3ItSgXhvSZDh3zWIYbD1Fju3zvpGJUOYo7qaW+KFPPO+LQzd0EJN0tsdQAUHYNmgAxcB/8fC244PPLGd72g1fcCiNd9rhDi6A9JaYvBFc1sPbT2+phc5Tpfc1ExyPp7NYMkEp+gjfqjK3EtYszK0tgmbjRBDG6MpKWF0NxazCWHrqGTQrOkDl2MEzeH2kGMn2+ietJTjnALglEYOnQbCFM9UDSk8VXnR5TPailAX/gNmnalcdY82Rqf+04FWYzb2PH4/lGjk5MhhEC23RJ/VtvN73VfOLwmagqP1T5BoC/Fu7DRvuly66/sAuh5OSDeFtASzXhwuU8gR5of/PDEvjA1lrsBAcZJXWESSGmlD4jNwJ/RsbTXV48AcsqrbffjnauQPRV7HMG1/2idV5GLt27Gcnm3OetkjIEshh2XCI92uYxpEzYCFXCFqBE17cWnFBlYHAw4ComL7YKSBzidLF6YvWKzl0AW7ntkk0i7rKAsrEq/aoCeTs8Ovi0OIKFsSO6cCMTIVYWTbxXK7yHQK8w98VKIhWySzW5Ke603zd7YntQWIeZcEscSuRGwHpc++AX7diDpjGzIgG8BnnVaAqZWdv3wmQxSu8/ueXctn+KETTvAZdjBHI/+S22r6+eiEnU07M6Wr5yuYnRMT4hUto0mXtOK1LqClBjU3eSCgZuA4p+xl/KuWTWmVYwtb/FNzh0MwO69UTd76AtrNqJU6lnnJI6p7Dcjw2toBf6d/Xzbpp7sUpKj2CwsVC8apW8M96XQADYLOzy50zZNxysY5mXp45GaD4p6VJKnR4lG5C3NgNwp/2cc0JdZVHQe7W51Cbbnc9rl2lGwJfHwhW8piSxG2pcfQLr1SY/wMhPnzfoHiaG4V+pgoT/jX4J/IGbQBpmsIlvPwAPZNoARwE+xJ6+eTDTJaujHtaUnDopHE3cZJsAgL0U4KAK/pivoJbvM8H3aJgrYJcyBaYJJ3jE+qrGHHLpyfkAQna+SUFU06GrH2Fv20c/3DRruws08hgwfsofBJAOewZ98usoCjo+6sVgAAOJN8oBCvAFPANUf7vJbBgBK3zZmUXiAo3Grba58h0K4Uo9P+UiHZ6CZZgYgA33AA9yNpXJ3Fl0vo3Q4kQQTDa/hwVILLw5lQKXe3RXNB56H/FgHsS5U8m6DzbyVZ4yaeHox/lriJL5X9Zrs4noHCwD4hRV1/GS64bzABGeUil1illu5jiZUp5HxOMN7l7tQdgbNu6leqmfKoRY/uxaN7EtsBX+KlAD9HIJNG+5w3hoq0JDdzbwbRF1xIuHcygPOUBW+2Ar/GK+Cq6HC2r2xqPCJ+MkfK108LMpiAb2bRkE1aJ8wG7d5/BAJmIdnIK2ETOA3jYHtYNK5ydlzk7LnJ2XNjP/ytWebXAsysq+CVapCJ7o0+iHrqbcUZe5RAZq88lxmARlLS1T1cebbsI9RIfeWsH8qkAJ1cqhxk4PW8i6e83oV4D9sMTx1yUfFC5QU+SXN7hT+6yX/D+Ihaa/8kKG2whNXfwBB9TB+WwNku0ygSH29ZD0sZcT2fYXRbO6zdGfhuuYsPMgZrA948PTADVIeABHJMNfzwQb1Zm439yOLv+ZQwiqtawRV1Icl2ZoCifvOCdi0omtlpOaC/90sdBTpyED9TjE0msBFLduO3LCMU6SXPofVhfaISQ/CyYdzDOcxWvO8o3IjWdCPBwdn4KaN0mYp7gN0RyMFe6uJYHnTePdbHiV6Q/w8tr6D9T0SG1r6N7gdinH0abBqdRn8uQtXacXjgE+OXuJi/tsCO9AdD8tSjz3kaLF16wC+fiwjhn9mgWi/d2CU7RDkbss7RnZKhn3+igrn8AOuERyxbT1C3kVQbMmejbqD/ZELwZEjg51nBzGTRDBqk+E1JopaSOgvUNVQ54xW/jXUWa53IYsinFEO6GZ4yY7iERuhul5zBiuNxguh3UtXdATRZm8Me1t131Tr7CUdOYBGecAR411fCev1kjMrGaiBQar6QrXUyjobRZAbGGqbWRsmJFPrE6/B13hoFqfm86l7TKQLi3T5JH6t1+ubWV4YR7FxW96A3F0ImZSOFVlZePfiAanwXDs8P5Gu4FC/qe6JqZyolbs5G1w8VFaMTEmi5NFOvvU7qNvc8BXSBCEdcs90sMIGpVU167qI0J+cCld9aHZx3h1oA+6nY4j/HaIHyMkGknrG6J1aSpb7g/5iWiDhTTMravPjTqIWDMKIYBCkAwlv4cAIpBq8l35+miiuorH9XYJCQZnxsC1r96Md2w6A88bvvIlveS30ULXXirw5by2U9ZxGnoWpeR15C4M5pNypaDAhpBP0SQ+1yRnx68TmgobS+BBPi8fg/x3O0hV2T6ORJc41hD9AoEfa2myyGeayqV4NLdp1TdPP0QIgQXOcS5136L7Q0/zl0FBUMq+dv/6Rec/no2ZhZyOyGEPxAVJ+B4E+yHSsBpfLIFLiv1SMO8JhdSLopORP2/ZOx25mA1HNYtMpsDf64GtRec418B2eRVQX1CNlmgBe8tbgrsK7Aj6HuqTVCHKF+bg8ayQ1ncvfrQwTQ+hV1LPUtxzh+UjlNtHgaaExHSCB8qRHaqo/+lcv6necb1BGx8ITfzk0Ht5matAtYPthhfYnrbGNmNn4P7PGoHlAzIXwpmLDw7hLlEJoH+W9ieeixGBIaKJGNMFHY7nDnRDOQJCrxFPhrZLtSnpORUhj2iY90IVGO2fd67m2vE53ofVCVBG2s7wOAInA6u7XeEQT5HRXdpLBBkSFykhiVuxIyqi8Sz1A8G88jyh6PwncAwawiqVm0YuXN0l7WDc1WxNvrUj0F1exaCGcACUEmb2wBOq7UbS6J6YuuYvhG+drRkFkZ37C4vA9HPYZrRmV6sDg5o+whS12qnHiyQckqYfXE6IdmowXDqizOR5U6YPldErGUluTuAnSgzQ7UOjAZbbEaEYjwmHILxMCfu5rX1/Hk0kvYcArO5N5tsX378w8uCsPI5dsh4huVYPb8PsDp9Qk/Z3xXwb8XdrGQ9RJXwAAowCct4xO1y5rs3NSBGhMbcwEiBhWmO1m1tud2UHixR98RIokajoAOvxNxPcgyf35c2SzBmN/2xVemrh3WOiQdsAZ8MAjZx9+NB6RmQVuhpi9MlUqn/VHoKAJ47eVuPOgTcWNbPS4HrHepibsbdDTiz2ZFqcU0kp9lb7uYVE7P9QzoAXqGc/9kHUGRwIMiGbJXIsAqAefn4P5lJLwYI3XaWpBe/m69UuwwOfrY8/UbjcVHVSXAEYbSNzJistSWLZbGROkUG+Fxn/a+RpQqwwKzKi0R1JQ4Lr1vX/UmfJpOrZqmBDCQoUc1TXM9q2VcYULzacik3DORXfbzHtsryq835Zith9d0JT0DsM7ZYGj0TWBhWLpFoyXS7fbBt9CWYXxOzEMxE9CQXlJjCn+a/kupYD0lGJy4GbVIp+hmnPtctZhz+frYqsnJ0uNC+X9zebGuSiEruw7vmluBzwRA1kMBnS51kA6JGRw+BhQpgjjNdNPxhJC/MpwPFTzFiAbeUiLubPb8y/1r5Ktc7eBNErrgUEaXvL0RK7FtAfmhELXji92QCTCaWBzstBrYgJupvctQfFiH3SE3IZ+l++dBzJD4Te4XAUDSjgipJXpOCZ51iBI/4uaXr1SSBSqlT7nzJiBAxEk4Yqoip4aIWpPmEzsv/wsb0c/ON1WZM46xKnj2wUB+qM58b6UE3y5KxRx/UrTEiijDVLAQa5riHCc2BCPtLAi+acql4uICh2td+M657HSQRT/acNnO5GS2vunaZtKfcKrKUlRft4AedmsRWqpnRtlDiI+gjtBZglkFxqoiPdSW7dWFJDpiV+NF0VhNXpsa1jFnDNfzQNrEUhhGwasgUJRV//291NoRlDpvGcYKSGwiCJ5N3qghLrKo6KLmnW8asx6dF37/kvPcNqkhbqR0J+gK1rYim3c8tBEutXhbVvc/qWBKr0xLTxUl634t2pln+HFtl9Z43b1aVTKxP/W08lf+sfhzsrBvSevpexb5VcEqqhA40S3t0gJMfFnW0SI8Iq8+LCKQzKEATfVa3wMElSUKoo+sopRcCieY0YiqosrEe0CROY7CeOfSdbj3pcvManheFkkktCEzf4guXMczRZGkpE1PgzMpL+gfHPbz2F51dEIzkXANZ//LaSZ8Mr2RfGWb4weCBOmQ6I+LQPrGgoXacjuDiSd+GfU/1Nb4u0bTYcWRWF6fgwQwKbQ0SmQZWGl6R1O0mnWVQ6SaGzVTV+XruRSi+lU778RIxdBxgRWNUBxBbDtGWMQ011mCaOM78lMvZbuZSt9lqUaWvAsaUHhi4v8qom6H0Odw9EQk6tvkXfblW5xZHvaWRnbHtW0rae+3E8ShvwD9YMuFXZXgZE4inBup+uIX3LFgp+pkUDm1D4Cdm4G7aVfIIqoFdnS6NLanfAR4S2/YvKSwJv+pysZ2xsFQZuP6jykvkl5kn7epeTBT4cA/NgA95bnrl+GZqS1wLBswZ+G/xevtdgkckVd3K9kRaR6qjEF8E2Vckv2CFtK93q8Z8CEOZezAERKwA3lmzPpVmHtByQmc6oIV7PMM5/WTfmiNSdqFgI/7vP6DDOJJQvQ38kKEBKWRVVCgdCG6EGmFF2lctTazcu293SoKrN86Lq1PUeh2Q9ltfoOdmc2K+ywamEnR+5kTpo9jU35NViqdkmLD/tCCg78nKS1PJDue3IwdiJ67KyKpPO3TtIChDlrEUcSSBonwEQXZcwUygDMC/Y99KBrnrnb5roI4BT3Es+FbiV0PexMNA/VBGAZWm/lnq0tSOntHDPlWVW7UEW/0FBP334ZM7WyEZhG4s7i63dAVEsoQF+/j7WVB5YI4Y7CtOxWj1S7mPGedKUV0tqMqAOhO5uHdAeFkg1hKUiBEY0+/dp9NTh7O5+Q8BgXLFPqjTB6iO0Pych5AEIADzgbUIGoALqwCZ0AKVi2IgVmKORi/HBR/yfGEJrb37q4kdaH1hwpCVJ4bBIDp+i1+SOF9n9yNGZqccuOywLL0gXnYiuBKOAW8IogA8ORB+6X7l9yZufEU1u9hlG1/WHoRHTWvtRwLLNx8diH4m5WDFvxjap6/p09MTJDP1YCe88j+L+Ls62DuAaShWXtJbFRbeiy4H0cP+Hx/gbROdQUpkva+QQneGjglZAHAaCxCJllP6n8TOdlarTxYjorFic9FcpdgRQ3fevxkg9xnkyX+YRPN+7hdhwZZ+t/D0+TMsMNmsGMwL3kCPOnJVNlfw6bwwIi2mmjnHyWc8GMM7wmdfeeJLHBlA3KA5V6srhWO+wPOahzbN0bKYDmGFhb4AohnRxbawxCzVPXW4ADtAii5VgUgN5jqrQd/8EHKy/YlPVA696Ya/dYrzJKg3N0FETRi8XA/+vgEokrHDXZ3wizUPentHI5fz9HJvm/Da5flw5NdELjzffFXFqn/JRhbMaK1gU4wz0FcO0XPp/1INdpBjvYnI8O+ooOm9FokKm0/VHy2MXATY+V97BS/0//szTEdLa6R0QWlaVZb01uKbBYFgq29+gAl+PimZzV+LdUzRIxjFik/rKxci3Zqa/Z19CsazLeo2ttY1SWO63Gs6miAEJlM3MOJRPUAuA0yPjMkFkUZaFBgHqhKGW9gjG7iyBsXJl1Fxcx8OWr5tOzR+SLFb5DMlOmIQrqoK/iI/Dx6xm53JMb4TyqbhgHJHjE5j7mfE+4ChLqDMPF9DD1C0rs1aBawF/0IsFui07Duu7Fb8OSDtyrg+QyyO5KwvJhv8ZPAGLbw/N/cu+p1QhGyAAgV9zDJIz3UD/tsE9UVbSFaeUELyI9dj+OpefTpkA4DsyV7KViIq35HwUcbw2NFILgJFWvvTmfBD1JcVVBJUPOYUF0Pm2sahFD1Judu6MIAnFwly11uMWXcrLlZoR1IVB4EW2cxdbCf4quZY1ZzqhupMiO1t1N0a8Al7w31j74yHiMASDy7FyitwRehTXdFaMcLdYU9sEObBVqxhnv9Jz7+3mOHekS1q5Iw7y0wsn7eRHWjxgi+bCuZB3q5+2ccjsBCs2pmtXAZLWZRSDSYXrHNY8mVMrlW3jHvEA7IpWAihQspvBntcwHBzB0RKGMtOFGfrC2gSoNhyohoYijVz13vPACMpuExRTEm5RgkZaFw918oN/IYKa1Ueq/+RvGkNYvI3R0FE1Ddm/wl4A6zAFWd+gsUn9TfKIoShZAVkxMgpHANDFsCrQkeDfk+g752PU/rHJLoBkuLty7l1bvjeW4VgpC131QeP9bpstVqn5ImMAKlah9FfwTRMr3VoM24AOboZLliGd9LrgbExwfrmC+8nrHQIkuGUkv8m4C5w2vRF3p4NbrGx/hIKQ/M+5khDKzgN9vIrdWxqsv8Fq9P3hHbWbpwwCiFMjs4Q2k6xhEaPgWAJbEa//3xMzdtKf9ErGB41+McKlihHFbgh8v6ppeS+AuatG5Qn2TexSHfcL+A8ajepW8TI2PitkY6Q9H6qr2eFMklBK9L2IiUnf4xc/WlRcoDxX2YRIfnsBhuBpLp/G+R2GkkozqSLUZT3Qd2Zo5aflsrQsaMf+PGyj7cnFhi6T1c+W/xijoZ4+OshaAroE89TLbRdC/CUxts0E0w1wB0M3LAlfZcFQZYMJG5cRLZzYWEapRO+5B24Pixxv7e5Bg7pckcrhAPsatxyPJ6YaAFXzYM1MWcDnfjLy5VuHYgv/pB09zpxM11hZDzrdLxLRKd3wru5v3nY84wTWwSDHpEvn/lUJJOWdMHlkvP06Vbth45bSXizG0jv5nBW8rE/JKUGLBBlWT3c2Hsrde/WDR7PNDiTcDLGMoIQ5wLucnPDmnl3Jqt6qNJmtzxBC109TNpRdLRqU50xtMNNF7naztEVUw4tNuk45Fbi9PB9I/lGIzPoFmwk0xvCZ/78PD4PPN73gfEs52shrImIS5JPWDOPuDq8iO/5oooEV3J8CvDRcjLYQ8PO2RRcQF1D03MqOcGRk7nbRDatIB+3hucfMexG610WVqqrDT57VT2Meoa0th3Cz+XjftaDhbNHuBumTdcte6Zop7zBIFq2Ao2XZ/kapbVQReCC5km9z+P8GiDLWjzKV4hW6UQEZGbbKvHEXIjIHPGSzC4+TUczZbejyPFG8ahOf4zTwnId7FmO3gP/j56d9Rg7tYmnzr0U/rHyu6L7xZKvzAUwVaeg5/Kn8U/NsMjd6oQllrYJu/G0q3HK0hEw8d1R8ZLsdRGnlhLs8lFYOTb6m/UZG6176ibVmlE7Qk05XLIJ9iePLC+VWkOngV+fbWsXJP9JYP9G+qlEL1LfUU7rrAajTiMFKTr8T1zmPJHrakAbJSTiWyk0KS98jW+W8E7FnaQJt9efA5FibR/bFgLAgJ5ifPgweR8xeCpJaaZqS0dS79i0Rap8ukynVkcx28virW6Qix8dgXs+qwhtyyjaUBB+qqbtvKPXnEN1eKZoXQreB9wqZ0OEvsjKEIHXu+/ga1jbWrPk6DpeGYQXYsBDoPkl/OMTUtih1T+hSK1Nuv8+5YKzUwcbklEJZYDfoN4twq3lBVfuzCJavLTs1dyPK+YL2azAD5g7+60evibbBj7UkLeYxvRB4maDd8FbwLptRVZLfcQ9v3FCCYZQHB2LiUUp2NpwLWuzfYmK5KYOdwT4XPMhDSnduzhDmyA7KBi9Ruk+BKLtLYJx6qXOhB8EK6Vbt19DrmTqzgkEr41ciGXaDo/2laec5lS7bgGYpzV44m278/2ltfyVDXsVKu8RUUQueoyt8uapd6cxugjgU8Rf5zCe2I8ggYt9ok1mqoC1rM+Dfd5ChzJX4lgkRwpkEwq4Aq3fhO95W2i3be+WTzosEQnp0W+RosJcrXpKORECkrWIY55xxoxxkik/tXJopZWlAK8A5W0E4ZeOA89ENlR+5HWHc0EuBAVrPhJr7WvOD1yABst/ggQNVlT0a5titlqx5sYYW//nBmbl20zDCdgw3f+mRbM0gLikndcHV3ydQ2l0KCYB+pydFAfKFF5oT2eN9ywyiSdhK5QzFZG/RBhk93ETeBtPV3o6codye/xDofMuXuzA+TtJ7zk5XN4oKctxxOjcgEyfaVi8fa/lT2t33Ffi6lPrmQiB+TFHeOVYb5Z3Oj9nPLA/AkVf0ZhFOXZJAHyA7abwAkIFx94OriSVq/xiqzNx6NAZLUu7OH7NfyPPHkXP22hWcD6Zm0u2l4bPrK5NRxmwaY9XPwi0cIhQ37sT2uv8ck9HK2+PKNZmSmibI3FQIyTflaclrympNyCvbbMUPXFuCK3POdYDg3e+kaMYOoQcumF/pv4YLUtbI0JqCAzx46AoS2DJdLeG5aQTHZqdH4vCZzJuybXZgUx2Tvzo8w5m9C5bqCQIANR4t4Pm2P9+n7AD2YY8ucbN0vXlMgMDiCgh2LQ7FvvT0+X2GW47BHRaEwZtWJLmrTJIXsM1q0QiCWy6oPoFChyMh3uqrJxJFE4tM4hom46VIRV/WsMS4VwiBGLOXpH2fgKc/HU06C3r+EB8lgFlODSD64LrixYzG/ed3niPxYi7TZ1bdv3ziwgjGq4TxqQwrUBvvEkkxqhOYTdwwx5BlhL0CBYIjGvPXUPWxIicXBL/YzC6GeXA6+knOi3XY4Q4rzWb5n6SSRZ7Ruia/8yTKogaQgfEY4cPwAFimb/WL44xR/SsiEjBLTDpZA/wmQL76+tPXVIaa1trU1F5VkdtgDVN5iSIpF1VkEEoPg3UDl2HcMdewGkRQ1vEvLEZeB6GCLoSd0l/yxdCIYuFOX0RNsJJcUJGzyONqZ1wk2JKoFurTiR0hCSonxdPb7OkmQmZrDhuhpEvKrRF8FTVT7c+OHx4GS9thRDroKyPPMfRnbC2SvnvMNdbBje1vbtzCur6Y24QqzATcluJmupV85rEBox+FkRg+ZAqeUDCziOII9fKFMrgSYQO+fVDaYf8e1a84Ge50lR1Vww18yDd5OKvXoxHko9QWpGsDN0s2rdJMha9Lsg9mPUIw9DNdhqCBbxQj+6wfkQf+PHfzkdYw0lhv8AA4DfALXIOVOBwIx7UVGyFQa7kmenL2Uvsc/pqneV2Rb+Rw3xuddk7NbrMr/DYqnub2TDGbCB+qPHSZL/tmY5zG7m7YEihNBI18SMoi6GA/p2s0xR/gJiVh40WmRbCJ3AKZbJQtjq1OIXmY/IG7fF+erTAM9Mq1pCPU+FXIWVtU7bl5a6TY9qddlCLg0Ct5rhwUfPoISoeBbEjEf3DNK455KBw2bPw7iPygl3mKVEhTFn/2p7aueazXMYQJ8PDPAl+7svlBjQgzqfNMXBfohbG+Yv8Ht0aKdOYf8zTTOcodrcmSinmAWD6lK+do/cyZ+5iaKGzM0W++XhWSLPCYSKO9Z4JrWV1CVcrT3JhIhME8tuHv1dvylqvdRtsPMR7I7Kk73ioezWWOzTS9/ObyI8Nx9tGmlLfyks+1JYVQx04w0xTrDxzdT9tFEQu7BlDIjH116ZiEW///2xbHMIuZgoTO9maz8wPh0mR/zvKf1pv7x4gl8hkbyyS5OhP4b2zM6QmOdEqyLUAgzdlTuUOJAvYUfEITc+O7EGB1jq6n289gR2E1UfxWOtv5xGnF83bAgYpC5OJRCQ/e+NplZtBMRHzeb/P8gbl/NzM7CEkSNJnXusTl7fBVn1sR+d6cEUX/wUtD4URhVFlhaL2jla9sC8NbkQd+qQTFKNTdBufRhqyfce5hmjhoV7HA1hRe+nV+3oWlInrPtLLooiE6xyUBa5vy2KsgTyGJKpPnsFf9A7vyc7/oszMV3w89Z4orE3dgAAcbr1q1CB31IRzUsmExoc6tQ3EqJIVGIl133yGQudgb8HWQkUOGijltfLaM5ZKLg5X808AE072I7JdRdwWjpmRJ2J08xrTSljh4sOfhe0Bv4/RgBwA2bB0lFjnDIVIl9ViZ8YdXXTGgpY7L5GoL0Wd0T/2rXyOwK+svTbRXM3j12vJDhtXq6RyQBqovA/reT8CaDFPRSGTxmOFjLaBxvR0A9qKTxZJj8ce31Ze29LxsyyjHpQ51GOYKGtm/j66H6TIvtokmBIwo+FxOEP979MFf1J7P1BNZDLns7ARaod0y91c/MC63dqpXrZp67u2JxUc5enOfzR31AFacAhV7WfhyUame04U94VVy/IbloYMabYXHjD0ql/Paknt1C4zSuWRqqkga9v0QIUdr69pAKG/aXW/sQ01LrDnULsR4gcz6S2ZDr73pOsWWqM6cUEAywLfwXgWkpHdIt2pRSB9dIu62x3MO0HJy2y4BreBlM5t0tMw/59oa/uISqPzUIAi5h1L/yv+uP1M4ykDynJ8cyC5gq7nXKEpxWwMi9bPdaFCoR9Qj6hH0++wFB4shtWdjKcpIR1MppXtsRPb6WlgFbifjqXFkohu9fXtFJI7TO2xM5yJUsgzGMM17usORY5qgcMHE53nA0U8XYBaYvjxc2tpCdPT/R65BvhCMptzyD9z8VKPEizfd3Bz1jteR1rxaRg/kxfgaHjioWvRefrHq0w6dRLZqAhxnGmiCslpyr92gJWdycrntRmnylnBQ3OX7wCvmp0b66vJR5dn8noGzRkbiHc0m7EnkEdFCnJDzctc5Myii08LebkpTIPjBOnRgzWymBt4ZoemnsoSgIpxir1joSsT8jF2WcYFiRMyhEAMzL5T/hZXBI95sw1f0koMzeVJ6IbhVf5neLxSDiH6+gEEFOkr8idnmFBZOWm13lu3gxh4AgSCegcEYq88QEc3HniqWcux9PD9IVcLSehCaYsE/JZz7LhYtmosWV3+rHRDI2Du+CODY1WSwUlcTm6DhTe1DY9eS6Jvm9MUlhngG2yngRwfpL0vao7IzgOEwmQxv15qBsnigptOgyiybFvYLJQd0orNz8MYf2R0fLGNI8FNdxlfbSrSNdr7qJFqgL4ti41qipk7okPSrq+cM3+2JyBotbywX6m6OGFx9ZsZpPaBJMn+GqymhSt4vhGLOSAdF54/SMI1ePyYSmyzO8hMhNVkflIi/PTlRe8/6+2o84VXqWA7yMIV1hPQf+MR7M6uvs0N9vuf8QCNXfnNAPoi9jj58UQRM0rLwGQJOlgvKCBiA9+NVUbarNBwGr21uP0CUKKqOOtgxmCufutfIsfgmLz/RG8j5+AYLH0c59VlqrVuVYEK9fzbwWV9bltmxVAWcFVxCerTFrvsZlxxm1BRtTUxBBCsmBRNN2nu6lMhhv8FtfOjMVsSFBZLJtFUP416QivgGEG9OG3ljpm3EexJHq0cRnCkpCRjMpcT7CP+jQr57x4g1t4zIPNBwN1ZiFNQU0yXbAgNCkU1VzrcxIlyjSww/23YjO+61tKZi1o3AaV/hOho0Qy+s0Mpa8wp6/Npjcsf5NYBXytl0HA4veVvnn52HNJnv4/n43hWp+gxhb7jCrET8FDYVmeH8HtI//fzOIda8S/XqcDNAhRJ9z02nodnw2Ot5+imvKebGP8YMt0qUaypl15tEeRiEWXmgatVG02G4seWbnUehEIgmQXzcz0s61ycwF4nAztdSrDHQGwa8lldzh/nbwlO3tNZAHSGdCd90R/N9EJph/shEeYVkFIYPR+Kdr5THdlnTqj5JnbyJas+S0T+xUFWWC4c1YojXQNyOxzB2AYSXaYSrKLrdHtFh7Ajfh5FwMUwuG1i8g+eGpCUgpUfoEmNXup3ZbPRKpeZlJ5AV80Ithlgxmg5TkMjhbhmlhhLb38Xi3vvdGNaksRTQOMNoQyxY5Wf15H0daP/bzEOC5FCHOkxP52bH9m+WdLdWY11Vn769kiZeBNSlDZDEeaen1rx966UTGHGsJ9xw/P3QpTjyVM9vXkOUeLAhGcZdrsUa1mzaJNvv7d1oL7JqLaCI277EO25I4QyOpclld7orH0KgdqPzOKAYQ0GDPQzFrbTuRMV8wD8VlQdcuQnRzQCdDLBxmIczYnl9F3GWh4cSpKTB24Ks6GvQT9z7nUXsT1KWPijZi+OXUPTRMd0guxLEctmtsuy1lqxEGkVmOKVvPp3Lzx6rJ1gI5y6qJwEzMciHfneGeFV2Zb6bVqbitIZ26WsruZaAUfbKCgsKvHnfwGZOpAGhK04wT/ViZDvUX440uBBa7iLVS0URNwSTI7ZKzNS7qRojUGiEoQt7g4rXB6y/EcM5lhsSr2smfNhM5Jo7WLnjal7ks0ouPE+6Ihku2/JZIz5vaGMOP+uWCkF4FEUM+mKgjunyGfuoNt57PIwibCqxUNkQCWpw6AWXrf9FtR0fgtpS6RY57rLoBx8D8a9z3v1A+CBiXqKomZJNvjuyK+M3/NpzGiIZLSb2cg1RCinLR51yFEXHAB7wrfrkdGTb5IBKELe4OK10mgMjefPV9GDCHb4mepgGNt92qiPK0sX99v21SbEFT84CqTZFlLkgp2vEOMNVsKuDvPwuSaQSgpkn9RSNBfUZVBLHmYYn+jhv18UZYm4r957WYFWUHv9s3QeSp82oiKZrRw2E+YQ1QJopweRQmYuE9cwOrWaberVlcLlpdwd6iyIANbIqZN0xG4gZU1X+2BUhhf72QgpUkcukUVg+67y37QjC3SdzxLNLf0CLdSoRC9Ob6deE5fxsPc0nyclI3ZsYZHHBuDB26tc5A1a4AP7BbMbhQK8pmjmi57cZzsL58jwGcReLxT2XDBrerO73PT4E7QGbAXFeX4+7l59ON0KsWkeWwrgdHWs8y82nUiRtVa1VgjdRvg4jaq59P5aN1SDXNrsjxL0raXkAcAQdoAALMSUAIPxp97LmN+3l0f7LiCcOHmmoXMdAZ3cKfiAEt3wck57KW8D7rQhjfCuCla8Kp/X3G2di1ZnryFCSm4ObUX/egMha+5iU7wCb6yA5H5Lnzp9nQQ5cMVidi9rogQxomx5OFCa84dqYxkdeTkevwCxaVYwMqsu1npwpPQ67hXZVNqZ7hNOGK7XMHt5qkxV2rkHKxyvHZ/CHGlcX/YeXTCJQkhytwFXIJ67yhLUZ+BUTlFCxt5qTwEYQTX7w4WXGqKRZpI/EjvXklCfwAlvfymP7IfCORjKcg/oSB9x4OM9TbsCpiUszBCqElO6FmLN1TdpkLJ+5g1Q2kQnQw4DqYoeLWH4C4HRuRnFQ3wxf7wKuzoozWUSq3UxoA01hGgYeBOhVIiiCqPfNyccn9CuIjaN/gcZc037T5+7AoAuhg3C5QJovUtUAYoe+UWfzkX2qG8Syirgto+Kx5wAg9B5edFJilmDisr29QN6ITGtBH++dzg0bNUdQbR3iHQs/M4sDWFE800ojuT3DGHFcFU6gBAcXYPlStEZLFaqPU0tkV8QsXEEfbEcCvy6uv5iqtPKA+CK1fXkrswYlmEDIYw4cw1g+tQU4c7ZBpBpBpLJuy/ORN3jNJFqoiwbJB8b91AJGASGXLO1hikwXtSCdBpq9q6NQYlRzuFsmW8DPl4A8zT9iHRBhW2sY7I7SdnZGwH9AnESDf6wONbMKv9M1oSs/DI3vxRaar/b/a8y+MP2DeK6oVQ1Z8ISySjobe7VaL9FYtu5VePf0Ceb28DsXwGkxPsG8bHQE30Y0BLsjiCfC6uB5UBjjS7rLdSxx+N3MuqIcpoalYh3fnOotGvVfn1eUxnplmjh7QwBHH4VRN1L8cyrS5WRDwDY4XmFYMuEKHfkI2rZdCARU2aO3yxjho5sYszGcohmS79NPs9DjjsbqlhBg5cDHd2BkI7L2mWojAb4rhcH1sihB5lpDOYngYbluJVszg6zOFpvNRDNSZ1JlEGW9s/1PZwSDnlEDbPbc+6hBE2TMA9crkoZ96HbKcBZewUN3kudF78MihKr/fr+yvf32fbsNq+tgJ+p7jxQ/vxQNph7nUc3/TTIlE7cK+qlHQY8H3QR+QjWvEJp2XsA/fqYw6fNvcGajwu1DT+YJUfRhvVw/Ir3jDMxfk16FJPUKIu1cMdZ5ogZ4CNzkj6Js+AIbhpNEPW05C4Wj2juYhfABqSQ9AYBjECuODeaS9puOJUj3+jjv7YSsNvkTcdIhbkFb+yJlZ+FQjgjyUbg+diZ+jyD7j8D1H9wBjfFo1u8Qopi6jOAYVkyx2yrkXKFvdRNBCGCNs3LdkS3TyXgwYOz+c+1Dra7fKNZF0AWzgE1zUqDMrPtk7QdeNFsNNtfxCxYlhpqvWHUfhHBdzVhnxb6LL5VjzMbOuRnAdzYEAhZUjq0zSqQXxlXO9MGU0xa3hnb/qvvwMmLJ99z3elBVGHjYlDGFaYzEGZHJTRn8Oa0RAsasuMk1mGWDke0pmbWJxp/JDddg0HrLR4YJGmAR5wAskig3erRXMLk48ZPGatwE0saeZ1gyoqs6s+1ZCxcnrSzEzL8jySsXDdbxA41pxkft3/Db8grWN4FX0N+7nlB/fwK3m/MC91Du1xKsaoFAE7i5aMV/Tfgd6+jxIt38C2HNrrUtBNpi0nAAIEAvn29EzYm1/1yNZzg7FXNp2O//wKZsy7q9q3WsHbqFzX9iK1Hq8zefs8ztcjGvcbtXU7/jEArtPzGwqEVRP7IP8LC1qeQrexnxK08dl+2z9G2raBguOiNA6YYzmQeK7Jnn3BqtqB5kMhRIigA4NIqaluDvS+cKdXhz9Bsq/WIMt0H1plHTxUXatMybxf2U0ySroX2fskh4kTsw+OomoJ+JTAQAaaRj/UD07y/42DDEFGPVKTMw0oO3rp4o/KNDaHQgYsBeVWiwiUOkdWhQPyw2IH/pmr3Z+Lkpzm7LD9/ILPjZ6a2WF+v0TJR//+eRsLOn5HX3S/opVhIC9/62gMyxj+uVb8b3Ugr2BHCY+rojeBEfQFmbIOOf3uq91jNaCCyzMi9QcqMl9cGGwxS8H2cXPaYN0MY8aJaJTRms6BYbqSxXbuJdzchuc7eLC52u1JSGnAvmI3P3j9/tRNKOdM05cNvqVdrsFX2BYcaw9jkLl+0gb5wPiNf+84EAUS5tcDlomXi/V22oJSMtBUodFXzB+Xdye+IRz4W7vSaicPDcyhHqeuc8jfwlGOnzaz3gvYqoexQPcR+d8s1N7jtPCtSMVbpme/JgrqAvNnU3NZHrUh6baQaJ4R4j7q1gXe7ssNteZankpxopZ/Q+00L0BXi8D+BXkIr1JAOxU944FAGw6njCZ7d4A9G6YPiwIs5DIpp5Cw7XUhJwbilTdn5hWh862W+WzOZ7VaA41TKnfpg+FreFF2nK2LyJ6/BjmmIbiOqP+aZryN3OupYmJ4z9PxlNRRbMaNXiaCLrTGrCpqQMzRpQLoBlseWzLVA75jTqDuWQltdqGgv9fEzWAtTMSuY/vaA7ELBML8IG3PeLVk33AYuPZLM4HLBfa4yxVFRXfQ1mckeWuFcEXNLvrw/NfGxw5SdGKyGsjb6hz99kRHCsNtKV/eckYr5Dh3DcepmUvldo8s9rTWxbNdE/4OONXOjS8+zWxjJP/xqOzGCd6t5Fhgcw+BsyNGEI/L06JYBGtiXuEKgm/mtpbN+2P1PQ0Kyfs3JmIYOf82tTr3VZJhQQeylyjSWyCnY0XCL0GRc/FRVNXfpcOjlLm4VzCydo47XAwx6kHzWdN8+0tawF/KDWAfksuy5bv8dlLLs2YiJwiY3CZrD5rH8cfoaeDc24WFrdhsX/IzbTEkbU4sGQf2+M76V0b5bDMJGidwG4/yQdrFVaViZeZwGXGkCwI7D0S4d56/4pVQdbBC4LEvXgf6TelYERYOg6XGcjisT1uPwVaLnlsZyWIStQyM+PJARy2SklMryfx3MVkX1cOUejAPHAea3/KBt55IVT7IJv9P8R0hbKVJHqLThKyXSOgQZ1E2HP2he3AyBrWyCWx0odGmV0IN46WJmLUw9J3e3RrAAkMefs1dwNqSDWPxQl1+WV4hvrCGQHFfCpvN1acHyt7YVGKr8RYPA7he9vTFw06794llfghiFB7dxbDGXmSJqaCXvgyPDjxE1cqjUfLXz7Rhf/bMKHI5ZTQXlt6/Env4ypxpyf43C7Ax+tZyK5uzlpgs3Huk4jVlpLFCZGkx0GgjF9w3UcCEw+NAgqjY0pLSn4yOtSEAnb2Wuh97dmhbUw6/C5wyj1mCmNsLCXANRQR+K4Tt47ZxDdttnD6/PeTRx8Wpsf+U8IAPPp7H4JkPgOn4lLZV2YXBL7X0BcGZAYRbP400M4mYjim87xCaYvzudJHqlfh00ixT+bSCUMxu2AHWqTpvTHrxBwGmj9XN4Z7XRIeeHVvwXpSV4+xWORRyUSnM2m9a5oJvkSsmRCkVGAGJ3ico2OUyfdi3WeDvUVwgHCYB6XKkg6NJPLL0syj5uDYP0RfQ9AwA4h3s58JzqXAVY2z3f5LSzFUz8E03hQMVITVXm3SgsGqIqMgKHi9AUgt5Ko6gjgUbr2pUfILzS2QBKcOuI+qKUzoG2MEw0LOna6SBupXO5QvelF+6zLS+QvpCc5yE2bvFcSQwWdxaOzPEo2aKtCDvn5Fg7sdKuekkoRarsHwwZPxy8wvnYDTz/xnIk8THaC+mlzN5A2+ObpWxoJw/g3Nww0N7dg4a3W8418YTK5JV+nedAAyxqaw1B/tGulmwMaP88bjIHWvusLKCeq+/PRJ3C6OW30/CYn7Mr6CqbmvRUqs2DmftJcIF+BZ1rdNBKmmlZYgsL6eMeqo62lmX6wuv7C5jADjIXZL+PwkKiA+XROVoWfL+Qnzzr7IbOlb+uCNqLtclyUzw5geWr7552w4VZDPzOwLhBCGyq2o6z4FIhYAmEuKjX2iT+kHTKp1xQVPW+gXpiOKJuHcZ3167XeqOd0f/cIifqLC4huEWUT0tsucYsKoGd32Hfmmp2i5Gm6dpApBXIhWcZu+t+4nG586eG3s4P2LoQOqa09Nk5PtN8i0La0qcom92kapU0ClN/flTz2KE5tCggukD3armroFesWgpP5l6MsFShuoiRET/bVIwXs9fgp/fjgcHl0zyLtaq4zgYtCfTUO4t82hOv+bv4rqI37gDeV2hTC0D++jheA2FiSBCf7n5P60mjd0pBIFQGO9I4loIAHQ4xfeu9lFDroHfcrA+D05N+MkJWp2e8O18u9/s0ZXLj0R7fH3qjRSsO8KkumiyUBqkaeL/n4nkeIyg/XpPOWRaC7V/y1xlIKN+hvcTLk53BDhmWCj5t4AcNXBvw/dQjL+wXDC2F2PtKU/kqHy5FxRVYZfCdtcxvqgeVYs2hk94WlpXWAQu9oyngFcgpOtTF4CJLfvgds0ThB22fheyFF/NQUMhh+ld4NEN9Ld1lSmxumJfV4gHMFZe4aJC0S1Tg3yMEOtQuAjTiETRqhHdH8KcCin+e5UT/cnT6EMD/qfRSYHyLyeU73Xtf6oCvAU09t1XXWaABSzmim/MjK7BpJoyL9aw0feA7HStd7siXQGORJwZHT2dnHf2dNgjIoaLgDxlmCis3V6rGvaPmRhBuuvg8+wb1T1Z9wRcaERTJ5fIaje85SHbfhDSMrP4RzkkMv1jz87McKRE6yL1OlqER+mqysQl6Jc9FvpRkth48zgNq8NA5i2UOxDSGqjCFkY9dCJS/fZ89DHYKZPnminlQ5i/I8h0rTYXmaV/IvEizgd+PRgySy8Ki4loZqnryvVXXQGw8X+gk4W/icP0cqODbWdQdsR66McDJ06u1/NUP5ZOpvcfxYZCPKgNsOxYtlJ8pP1G3+8GfwHXuZBBSzsH/watYniFPNy7JNOvM7WSfkpxahXxTecpF0THbH8M5xbfMBI0EPlRZmVaDVFRNzw8HzvGLj5lIrRzn0yeaJOcVKozPxO4S2sR01Xn+TuNYFAamg75DlGk99HlKlwiWOtWYG7tBuSQydRZI3tXslSe6QBP13sqGrmDUCkZ8Hd43eHnZLDReX/SlAHxgLDpfADCu2AThqDbj3fKexKO9h6BJBq//BL2cTVcYgXGdBcw9g8G33N/HD3B0vzoOJwMzNdwYk9WXpwqlsME1CAvr/5Aopl2iSX3Mg/9QvCXU63FbDJoX3rTr5dBqOXf5AJl2xWFVaSRFwUmmUwwuBX5Bje2VAGZKkg3kUdJnSkAwlpoEcIoIphHYNKqDPrVruZnBL49u1qa+rdDbDVl425jVJ0RtbW6243BseBIXCVKiVWj5+ykleVTLrYR52VuxCCyaFsvF0u/aZ5WMq2oiQNJ+52EUAHyiOXSWPEa/Zf3xCYg6wpR2AqiU6+V4fclPYvuYri/h6lEhXS593b3+mF2GWE8bPKU3eWZvaNQy1v/4bFzy/9UhV/2JEyKLbEpcG9FNeQTEoYPewDMFlNpGW3i72Aw2Z+nubYuvvfXyTB3xa/s8DzCVS4amfJAhgwMScXf3ROvy4JWQGU+dCb68ab+tJ6ouv1Dtnl8EBimh5H2NRcdb9oIbpXJoJ/gdzfhx+BSfIRRnZRkcrd4HEi0bHGNOL9NAn1a7Ki/CnC5bR/jdtmJ1uCDr1ehV8YRFxMfywGcOkD688M5zihoimNTqeMiBuDuDnjij88pXeALIg7N/esMvNBoABsoUaoeFqoZV2xMlALYHwNp7VdIz2Z7oquGAiETgvO+lfWbb4DjLCcUhS0jm9KmG43lcsx530Pc6W046fPFvZBf53Z6bz7X4B7FTwHz2kRWJbKpbtG8q0uXLmzOCwnPQx/XMHijo22q+wwHMDfB9XnCAOLxIrhEsZ1QDtDCgHhebIL9aeavT+NGOUJwydg+B48YAVa9cL9zr67Bzk+roffN3xKdGJTG6QbGFSTggYKqzlC6V8HX8eAPo/WzuOw4OtOHTGOANnXKZVLpEICKAxN36/XA1u7c4KmxKwExBPek9ixI425ufg78vwpe4qaEj4PGBi3JOk2UgeyPU9oCV70vb44ahfQpM/P2wd5CVfrYBXdLNqJaWtE7l+VeBeAHoHDbUTGkcd2e3N3cj7hcBjZRl4AqyOvQGK4xN4LTz6MKigJSOGjOieC7GJT7dMmT79ZSYdh7fLFnvbS1JdWXQ4BfynMUydMklHsMrS9zeABDZFUW17MgC4gowT/tF75+T0Oi7g5/bWGUJYukgTBoG8qkmaqC9VbKJcxHrg5pb4h29RLsRLHa1DQ2i4QAeo3bV3ihSVokNXgOIkUKS5TI+2/4WZccT8E0P8Xrc8ojJbhCTeDt2cFviar+jhf9yB2dJ5mGHEV6JT+LCXkq39i9mL8NSCczm6RZcKc/xvjx7T6UAexgEi8r3d5mY6L5gbvcndYxZlQ+E+a6vCNOIMyZuigRC6Nehn0/pWZjxkGPC6yseT1DN2XxmM4QiQmACvRwC2T7VIwUw7JdAFeI1ZiR/BfBw0s58JSrkeNLjvbOXUiq5qAUtewAxR1gHG5+C/qRI5g2sPw5+Bx8B8faGZqI75fdbh6ulu+Xqj7r2BO2PTiC6s0ENdnbBCkhVMpfMVb2sAhiG9EJ7NB1NUEzzrF5PcIygDAoEC2wq1socdg2GvL4m6Cx2ubT7BwOkU1ltR1PVhuPVAMkqrzWiqdrx6Rz0PmfhfeLbpA+zm6QMwiR9rdApE26D5VPVwWVVlxOByOjg06307mEPgxZTDv5On41yiuET4bThtKyOaOIZkPHDiiC/VBC2QkOc+f4fVNzrmURY/1jF0LFs8zoTD2MNfmiUXVy+zajn+XU+MdgBtaHmzdfB/Cr/McWa8avqqQR5RFwhAoO5nSWabZwGcimypXo9kaYhwS7e2H499l0dNrgSkPJ2C3S+JhA6AfchFWdwixiE/afSkaAMAjOW6mqFD8tguUdj3zHSa+2ga0SHFAVdWwBgshyskGTEZN9WVcvkj+V4bsQ08U1m5cQJhgtazGnbAGJcNGDraCZW80OQAd44oRYfiVZ3AGGQA3TLnOfHVln6Yd/4Goj7sRbmVj1mufkiQApvsuBQ14qHr7Z6JAKJBURIgMgG6JQvD09O7gKibZ6qLW83+zdjjWlx3cqenaKqycQT/xQlaouJVc2rgZdF2DZ31kr2JydAWD8gtzRWibQzacjU9mkJt4JhZv92qXd3J3cYUQf9JQxV6zKh8qsO+QXYmOQlUwaILpFX5ma9ZLByfx8JbJgmmtQFe1pq5eSBc+FojLuUXPDY7oaiNuyMBdAIWS8ye2gGVCmxGZM/at/hVZXkysDbIBYorux3Hxkv5XD6hhD2zhF7Otdx8mniYXlOxmIkpE8aj4xdMUGuVx1e+GvjtOEWOSHDLhQ48VzNWq1MXNMhptGDJMNiiy11Sbi39A/6vtXE4sBOmXQupMDY58LOtWuv9jysAAJwCdIARHThFReJ/M/06u9Jy0sDil6Whe3kEn8ao3eJdUeQIswoSfIOjUmcnlopbjHCurOp50aphQpMamdbIQ45jwl87p8d5AuH7l6e8yc7/6p5y9sV9auvksvapiR2Y8/+NbQhtVYYOB7fl5xAgC94MHVna2QZwWKSqjHOTEBWtKAT+AP1kAG575TNr6NbyROkSdUEEcWB34rtieHkNGoQhHdT8sA9gGcEoxbZZF/Jz8FbIpB9P2zwe/QhpjoDhI8/sCnZIDYi9H1lQhHanqLN9UgLfJgS6kJAgVJnN+A+XrczfSMrL7pJ+Ex/eM0GjTe9BCTvhwdyEt+Fa7qAn/Brl1E92UPBlrbHrQgLJiD84mdYOsufC6uO8f/rGTzDHZDKS1ip6QK1DZYnTGvXPaDJpWLuBoxDzfvjZ4Lzu8fhZgMN4wc+irrOHkRs8zDaYWnqUTLvCkr5TzQGzNVSLar4twzfnEMpR4Enu7BxUkoaPa6+8IH64smWlMxRxRA+ixiuqfZ3i4W5ShFTdXWjW7R8EB+FhS8sWknU/zhLaq3yFOv8IlXCCxmScERdnIcfUxLxVR+8ylf5kE61gGt0KN3Pog9+u33ip5ACqFC9KpNGAllMLfdFMLnunnv3MPZhNfcewDZD1eNpRFAxO/M1zmUuGJF7r0jsNvXKkNXTJdt1WMswtIlxAZn9wKqVnHRU/w5azUTa4LcD7Nof3aZv9UXSnoKADgaJos/oChNa2S5b1p+eFMiXh0oqj53q8QYaalfLCyMcSx3zwG6taU4QAmJlDm8OqBcne1INxYw2BlpXJCFkpVfTg9vZDnDu+trKqdtDJuUR2wo2pdy5jOeOw/GtPcMHe/JTOSgO+L7i3aZFs3Ud5bKuTrHeQUppNUe0GGV2Tuo4u3w6EcksUt6U6ROyuO72VpCfqOOabn37ae5pkMh9ldcYcqjtNMiwGpfXjmmDJr0nDeGiegOKKIy/E76M5MVisjfRozLoXS+4q/NT2yNec6KC7lPA/uUKx7DgQqo9TrIsbwlZIkM83V9/tVsrY5u2uHPdlwdxGI24qCsVF+gD0jrD0/GPdQNK8JxZ40b9j19dJZ80rFrOJp6cPBnzB7DJIV6Rccyjc0ZaWzuDBmZ68ky1bj675lUpPx3HjptymrSEDurgDxKfodHIEgi8yRxNXijHBSj+gUfo0o4wtalTKdS7XUR6PXfZT1saAyL5RIsb+71T8oWD1mfNUXf09ITgYqaP0JfwX09QaO2UpaXjNpnKHIm0f6tv+WtsJu896w/41BBMiB+7KqjPMsj6UOJ4cT8+saa3aW0NWPtqbsX4mI8B1y4hmg1vAeYtd6HOiQiNJocjE8S/Adj3NYcV9hd3t6+xAt3ZXWBA5clDbqJauXmZvxzEHEOhft66+2mbYP2tH/KWa/+PVMIul6jiOs5rLnF+9qJ1WU+FPBEXbtyA3vkraJnDiH21dcHSTCPk4jJQugRjCPysoY3dqA7jV8BWAhPDB5mkDbUInxHRqdKJyBOc6vfE1p2viEVPCDldSPUEc0Iqen+E72yX12kKPXtLmFS/VWTljEQpW1+cPJjRIrpEG39wk53ahxpwImDP3Z9V+NMY9AsbHLDveYuXkJFg/9+KiSLPRB83fkCclEKbCI2iKwtXThXJXZfbQZhN64m20Y099pGbxh9xiW3DWNALbDkmDpo42JADZWqzGDKA1MiR09AvtS8Zm9e9nMFKAaliX2vsmGsTt7lLkCUXJ8xbaN/j9gG+VWLxvF44F/IPS9tMOHUjW1tAiLIcNZDalbYl2zhF3Wz5OWd6MgjYvss3auSrM+rgsA/2FVi5qqiZk008RAOzbxh3KtJY+aApaTbWzgN/6/5GmrhEY/MLGVwgfyVILBkAg73erYsKuXLY72ewgCo9fC85re0DTf3HWQh6SMdIxjX2ZTrokqxwIpUIcqhSOIV51FJIdAmWQpv1X7vhXu5cJVbjtJ/Vw32u6SIrFJnKePc288hB+zKRTgZ/VkjxhjgLAFEaiQm3dDkA0g9BJQwjPa90Kw19weGNDzv5sM8XzaH/+quhEHUjC9RhiUvaqxt5sAjVPv9vRBNl1MZDa/zGxt467Lhe66HU7LL91Nz888oGrLZs3+mSueVS3AnaAEw5pLJGAlwN7CMuXElW2DXTI9EuLc+VIeWS4MC54IO78FRg0K/mzn7Amdc8KfhNwr8i5vENrwApgwjJ5h9ak+GdaWGuuCIUFH1Zgke/RH6rJ9cy+JJdS6yxE8orCJV9VGQwDw9kMePZm3F5BBeGxaBtr09KJech014GM63t2macQm4dRWXwNosRY6+VKNDI/FXQpq9glHCYWjwaEfQQAB6lbTJDyah4pwhwsJcwl3Mbie06+Bpj1Tf8R76/CUWVT8CDro7qmMrSPDzE2ChAhz1Nva5aldj+ar+u4pY26ssZy7IJSuKk0mvcGhNwSMSfe8MmE4hbNJ+2BdIHK74CHYI17/4SAU+YuzrgZ5ZtHz+5AyL8tx2JxeXDOSJRjqef5fiVez5izsQQvs9I93fk0AHaBA1VTqJtMmnmBYtLEVUeZmW0A+4+cZtrzV4MTEmy4F54wTR3p+SYq+Q+UQrCeGdLXfMU5IfM3WsuiK9vDfl1y90FopLRLGNcE4UoUWutuQnWG4Td9HzQ9XmFRb2/SMErmYT+v0sbgyyHlhOiv85uBLFHcU2TnYE4T8c+KYm/mZAalcAK908agr52mCHgicjef/LnksHDI0h44wjHyorqAmX8nBJvAmnxpEZzIXk8bEapK/03EIOE3A1eEuGIcRVCVB4M6XY0Udw1NRYitS10yUhScGzk/UsIo36DqUEWjCHHrWV4T7sl8NQ9oVamBX1uXQUNspFnz59W9zbQBaARyeCbWue6zmKZxh0XEkIX3XhEy/fhauNp84mYfh+Lu8StwRGUSLW4/fY+Os/xoVe7OOVsuTgHsXGcZNuAcBvVcLMWPCE3rY731j9hEqSmajMTE27HIbBapWs+5y0U2FYhl4p+G+uOvjxkna7BvOuFPcVG5JfJMJwO69RzCWg/jHaeMlYTJCVBbl+bsrN2Lpeg0sSt+ViuOVtSmPdi7EdvtbzuAfmqneXLa62iBGVJ59RFL/uY3m764mzupP7roLVkax3LEyQw66O/LWZIoqqb8r3hOEh+47TDX9WtroxgORSIutA+mKwcAhDaidiJ7lXUTj9nLve1jYAQgvAq4QYPAApRRGDeABgiC9kIMX4TnWmPXOpXPymFlmHFF5fhvJhByVtMhpZAXjkGPgdHqjYj2UukcPAIbs5qPBoSdgkg4XKTDNufOe8H9puZ2/wF4tyGd+yb0VJAu+HVJFPpQTalNTCnprlMylMB+ATbPdmDaDOL2+3BeFzaDplq2UiedchZavfQi26bpfouwq/qtQbOKslD8h1jp/ijhcHDMkbHapuebnYJV14cB0ktCXNiU3XvTgATW+/KUJQ2VIiwte64k56p+4XtoVZg7LzvRJE02kSCJjVUt046Fb6ewF7dTwQQxCmQRnCXrJYeZrOOMxnd0Ixckr7bmcoUd9U6lbuv4s5J3NnhVJQG0kLZyHOZz8xYLvs7YX8gNvNDM3URR6xWAP380Vbu3s/3AL6DMbM/8c511655fBgAoPMpIqp42L1iEHAP1r6IUlBM0YVpMD995H7j2rPc4di12wSMroTc/wE3ngPmlpDp1oSlW2kBeysejlrRkeOzyeXs21T6M8Bk8JIqoYa0aJn7jyZ5ypQQq8/bUI35LVQED9begfBSBECutU2Dbbl1uGO5IEqgxRWngiBjGv1uPXD+0FDUVfzPGLW3LuOvvGI+TIf5eMk3poxB3aBsc674l9gWdq1A0lvVrcnNhCZMyz1wzIHNemppnc4Fjew84t41ws33h2X5ra2PEHlFuPYN5JgX/VWUZHR94U9s8RMbCi4R1Wp/EEza45wGKXxu954/2PGryktsngVSfj6AkQy3O/AyCDVrp4+4+Yuf2SZ794mHtNKnce/avshgfIEP21FU9AF0RUyTxCCs6F6VOmFsZggTuOr2z9cKcIZwFM13h9m5lZumlj9zLLIuRFsFw8gJusmcGE58U2yKsJFMytlugNGHt4aUWy/+RbWSeL/cIRGrU5/czS6ELWqNLrBM9lPJB2JzYq68cgkTGXoTfGGudK2mw/ugScdw3NVc0X4HRAjXhhXqW3jF1OH4tEDRwM0m9pomCLUUanjA3m1uaxlMiHcspRzJdq7OYIURE97qYnRuW0wwA7xDM6rSRahiv+o8yOEUBizgchtsRqX2J2ZtQAPguSEr4bIiDKAgKQ0mgGcYrRY/N/sBtnMm97wpx0opfEnudUyScgV+0R4+ARyfcC8LvUIrZNJEA4kRGvFLkkKhKBj6Zchr8le0X/cus9z04jB1XfRZHWpyDU/AbDVaoLf7ZPEs4497l4D+vNGFsmjMmSE4bM6LoX4JDdES9mLAkciRyGl3x7htYizL5yOCACdTf4E1GY0ty1qdFFHiJ/0bezCA/oVpbOyp6Jd46kLkQx5IPG/LyxwUJyaVYcGn9QqWsLFs0j2DzoWw3EKltD2j2R7I5UX5EpTxO2QsMR8PoS5Zc+Nu2nOITkc3RTSQgBSOWzh4saBPUa6xxEhXv/qnmuiQ0VYv7/Kdejl/W67A0XtXSa3bNjafbcGGOA+qE4mHUik0GuNqQ8XKrkV8l4nowLNcGi0Ha8XF+X2FI1jiY1+fa5igOy3anatG21oqMRjCTc9HciL7TzQHT1V5j44NxcDOURsyWu/+NjH+7toTGw6DE7ewHQ/9Xq6SkXp3uLMC0mZRZUTFo0ZwEpwbDelT2Llwsx9sp6GbZZrXm9bYyqMrvExXtcxCYG7lx4KD/1mjYXZnvIL/rHDoPsf3WGMhmA/qT/JyLE9yyBN2nKyDiTzNJfDKRhncJ6jqkQY5GEgF4o8Hq0zodpzcFTm9pcQGRZdzdP7a2BTbel+/Y/1cZp1EZydrpJfgI1woIF09WEND7Nr6FtimhkrBqI5iZQrsubChg7ZNJHqbk1Nz+jkoO4XGLr4oP/iUwDUjUjUkJH5LNW41koB/oMyB1UQDpW8WEgpzceoKdqi1mz4QS/mI1GbKH344M8iAwzKhJDRMoK25aXO0ZzY/00IosKIYIRjeVpS8lsinRsRr2IdjCbTOyPNOjoxvxQnHarGYQ2l8ljwi5BUvuKs3PJbIfrJJnm0/J5KkakwzcQh3KMTUH4nMZVzADiK08ku3AiqLV6UVAePU4LAjEhFyiUSOi2laxnkXUBRA+INYe5LlwcPuoC6DZuaFL4byPWSLT0l/1CwCoJbBGTeVZOfCrk1Ts/YmFgp639TyX4ahzhlZdiqaolisW/uJ+5hucrHWlXZqRwHm5f4ZAYbhLe7Z6IS7amSwOKVO6yeQiWgis4VjBkJWNhxh0odma5c6ayStqRqV0pvRAhi0MyMOLD85LuzjMcZGgQmUI0uphO47N8cVD3jdBS67XaxvAWS/G7E0r9wKXD5jcU7q8xyDOE1GcHNlvxwWjT/IN0W4i8zIDIA6u2vPY5bh62aK7QrwSiw3cazxbcRAe5MjgLNEgt6Eg+CFhgIBF4klTYglTfhjq8sOIgAf0tnGgWNTgGz4aAFjuLZnHYVhmC47gkMRjus0yRFn/Ut9yr4YGSm7dIsiMSaRI/lJ9V4pQWE4iiWO/+Z8Ybps/VnKtMMEiHBKDXujkH16x9Oc+AhZkG3JZbup/ROFsCdPQF9OhF2lHR+eFwnX/jGtmvEQQET/e25wqq90oRAE8BT1MdyOVmRiZythWqJSuodtfnssArogWYAf8J+4uKuMebK/abdHBw92u6l5OVHlh0WzIFN/JgGkgAzHsGu9HD64hG5IyGhBpXbxmKbHThaKc8mFUxysb/i22q0ukzqCSyVKWBOafFOiNZSLvHb7EbFJI7s76C67AIGsvgA0Ud0BxKoCrs9B6983U0BCpPdmJTdvywQdDq9QIgRivBcGOWZmCLqDwszUyzLEgSiuxOVFarE7IBChdnfqcxbMikmNIUvOsLdqBfWA/75pgYAemD+X6sS7o1odUyGEBeZZSzl7LLRLH29ZUQok4Jx68ZPV1DUXQEe1Sd813BWKgbi5BM//dZz1LUnT73FhqTXR3GJ8hoErXlwbiDkLAT5D1ibOMmM/1HzszAp8V4MsUkkMjKgI92kIvkKCjpLXvrVzOrqhAGM64QkMjYa87rT0La5DnU+OwrqteGS6Bc1FAzENMDxKrpeF3Gy6vxDvfbGVdRqsRz4HLWVkY57sCmdKg/HCqUG4Tr/hSqP44+lwoBXLSLhx/JNVNwAcOk6UDQ9QfnItkFgK393FpWUgmSzq5gvNNKF0nniHbsW1qS0DBqN9Pl5tkiD4neEHr5VlonaJmv2GUQZDBOk2Dc+KgyJDf6Co08sFsoIUAiVC4Cxk/9b/K71CbXmYQngbhYHBTs8RQHWfdcaBthCm0VQ/Y4hikUxbgeZ5hB+n7OdDdcRp8wFwAjwHvPP/gMBQnzf4An+VkVuFek3Nzsjip0IsvlufND9n7dYpA4SwLgXC/Wcz3v1LBUZcbDszWUDSAI0SNBiSGixBUS+eFIPq3Y4nqfMd2tkL1auqIDXGUNdGmPs3I5bN9bSMzpgYNdayRzQlrFj+TOkSN8oWp+YeAWRrhanx9cYH3HYFlbVmLLu50BuqMC8C/OL1+M5qf21dGyDXhKoBDFUQr3weFv732YWUlR5zWtYTPYCb1RO91dulys7FkLtICH/QHGnoD/CuAa4XnPfMcCnT34j142mX1mb+LGc4dkq1ik36j30z3eE8oECwJ12UtjfrPnEhV1Fdw5tceNkZMUAuhoyBB8l9x59AojiRupALST4buKgxZn7ED+bnX1QNAef9XUiVFgpQeMem9ou+jdQewZ0DhqXB5aRymo/xY1vD+TLifaQWkMaRvIR/IRvxNVnjUk7G2MfjAWwLumTGCtoBnp8NcqbdpVr7SP1eZQuZjtJeTks1MgfUh6c0uKyRhdv0Uf9aP3yqUUWaUcBc3aJ54L2yob7ZwWpem66pa3PY1mn0oqDBeL5kf+snYhwlHkRfhz+xM4kS9NMbs3PylGnnqptirc/OmR/TLKn5TBMBJNDd6hS33StKtmdg9FAKHEwP13ONxolKAmFRiL0d0rT6S6jd9l0rrc5baquZSAaH1e1LtjU96CE7GWUGSbn1dN/PL0x4fnZOTQBJP1PtRAQDJ5yufzB7tPQ0i5jzvbtbu8tkeO8Fg3u+3Hy6CioaRjpctfbnKd0gv/Ev+y05k54CuTsGSwu6LVGMr8q1/fV11XKsTk909n8WpHzMA7YI/GqxKtkUBJSGsSaMMXohiiRNno7DZOycO8KHmhMILkL9vz/pjljWh0WmBnYYJihOgAj7MIcdyo1KrT72VIxhV1/E5CNqBm7R+KYPblePZMa1oIvO5f/hVBc8snR30n04uztYDNMZwk5mTzXKb4/4LmGXnN5NbG5M8ycRRAMthnGaPVUz4muwcfKdS3qgfv5E1780g5QVlH5L5wzFEy4b4qh2aebol68SR0rv7dj9sL7f3187WbGuLDyUxZtvlk3HDLV7v9j20OUaedVMdniocukvmElaVSh22MyutoGxKy3qlOWxwJ/gAjokK92RMTXgLD5C2q0JUe3mX6w7Ed3AByEBW9HJ2xCmZoNcbbtII+L52nW6hVaSgkM6b0sPgDt6akzG6+A5VHNU6OixPluR04DOSeZ33o9QQgqdAzB1U956BvxTxSzak2W8SbjOgcKMOGA0Zk7K0ug/aFF4kvggghdIUoq2NXW+90nD6azu1w+Z8bKxdbncbqiq1iYkTBuKILBCoRd5GMzvhjh8JamU7Qz+vxZ6Ao4ZnNPb3wEsqfYRKQgFMmw2YVspxR8eK+zzT38odemEIentujwDlXGe2TIkAHdscSRER1skQOBf1n3hSXLOLqs/CF879emCOmQt3vxG3J9NfPEsvr5CM55AX+sYiZxMv1IDvlQJKDwZbKmY/t/PJOsVt0i4RXjAtrZCQnVHjTgfdAO1IXXNUauHO72pBd7pNxDoMNwFRqWIvkVI0rfEfFGWQEsi5w9AixGVa3k7lfvYz5qRFHPNjJoH36y1p2ABh1EbdkAbiRT99AlRyPBXLaGWpLb2cKs0mU9UGXjELpM7Pslu5/jqyhKIIFP8fcb4KHiN6B9TqB6dEM7P//+9iTx0eCYWzGGO7J5DSzskPDOUYXITjK7/+lPXuNO6s4t48ZhRdj7nH3MqsTeY+Nu/DeOOomojhW8nZfO1axFEhugmU35wXGVuT91whS8y+3oQyMfR+y4ORsyJnw1wvaCel6Juo06wNQr0RhuXldEpDFjULeGh/T0YUT1FtqvIx1zyiuKYFc7sUO4Ta/O9xBYH+rudTF4IcgVY9j4sDdmlfaambCrsCiYw2+XYSCVFdd5WAkdtfve/ufoZ/N88oLvlQjJgb0vVGyfldpSZjj5A+o+s6aY5E8ipZSop5TNYE3mMdnuwFn4k01HVos0yCNWPvvSNEMcGaRIfJvvBusQuuO79O/wXLUHJ5tw+mmsorXg2F1U+g/4cCh+x0Ib+9yEVCakhyUh+Y9p/YOAZHTXp/RIhooRaA2VoFR5Af5+D93TTuVsq5pg6jrlNTit/LGNuoRUb+IMQzemTbwowAKcg7kPAOFY7Omn58ZupdYSqox55gG2M1y77wm5+TyYiw7/cEsHXu4HRrCe9FP9EYPIhshaQ6fo2Cvh7wmToH+yVCWkzjxGanS3gASo+bFqagiguBOrJ9QUuameydyhoAQotCbRm3lyUlNKXGo4ALJgs8pWPxtBDWrL8cmnIlaj5cKnxG/F6059eUJ+TNrIzd1C0kODQND3hbBOtnzBdvHp8CPzsewTdx7Aa5LX+XElaa7cz2/4sh1FrfsRc1KL0NUMqAy5+iLbvESZpaFKZUjmpAzPuKQcfLajL9o2/8/DvZDj0kwT0yL3iIPhMYCm/oJxzQGVx32BDaLbwgG0FB6HqU4OeS/zlRpkT5cCAmGWaxiKoFUWEM3YAcIe3qYu9E4HXh1rVFAFZwLeOYs3BAGKH+U9b7m6rGO5x7t5zF32nsIb2vx6JAjFsNIejgAlbssSvmdmB3usX61wo03yCdLNXSfGryZZ12zMB4XsNMpc9PPlqLWyexg8dseE4QAg3+KWm+n/LUHs9yudxKnBtB+iVfU0BgWP7ZnF4ewfYC3444W7gU6V1u1lEJ4lNvsKFpKO/CLr5Dtok9Nz7o110bFUo5aTMWNZ+/fbNF0SeaaY4B2+FQYWqkDN+WgH+kL8kqrCOp/hSiAQp9V1sn8kwTRvKCBoz9KtxGdMOEQmo08kryTweqQiPQCkK/nAb4WXtcOVXzqnbk20gsb9wYwI2tlOfARQDNnkjb1jzpr17B9tmdOG6qxyG6Y2FgKFfZbSCglo6eboCh16cPAALWjG5v62lVO/PTC0a788Rdup+kj1OsLo/xy7uzOgPeW4GcJq4QvBmSfxSlS7KULONp0Oqi5YBHaCvl5NPvtY+P4xTcjziUEYX6y0cpTl7VidYwPI23ygWI2giPH3YNCJIwdDFN6v1jfLgawNY8TRrmMvItWy7RCFryL1jfDuHlvjvZb271r5kRWbOgNMtEMviYwmlZgaERtW4ePmgXcOK8dhxmatUjv6OHnta2dJtgY+gE86AF9RCx2Ze7oVys4wrg3OcG/Q/hRApazrtpwBO0XHWb9xPZFruMJmD12WlMFQG47zl5Jz9gvabF8ry06qGP6nSTc8CHJVoyX44cUgwNxoBcWb21PbVDjWeCzlh+1OKPx3cAxEipDiMCFArUlaANMXZ2LPOn3paKe8UAcCu/jfFUvBSDxM16s/75n3kUg2w9jZ1LTolL9rtpyQrIy4xVnjBzo7LtABXFW4bucrkXdaC6InMNHKAArJsMBURPNzEno/6BACdQyGGsbBRFJ686SBSwf0ujc1pwoXi82DdfIqM27LWs1H30P3cvL3qv2IBrdDscBsYluRFwyvT3udezYAUdrIfO4dTSY36hbV7SjrgNN5a691jRUwPLHrW7TkL/3G79jAO32C9MCm/hdb4sjdj08OBkGcseA+4jxcESZLgmy2H6AkE6k8qgx7ZyvdXShL3QjuB3ivM1LyqVSSGUO58BdmjPpSZown9qccxzpa6urhdydJpxs1E38ZcwlDAHMoDS6zlvCvz3R6DgGlZTjozNky7BDPeNKFbXyr2ls82YeD4bmJJQ33AwAABHvH55NfDkOhZ6ySVyUBICG380xsnBkN55EbQjoNMD1CoD6F9oA/dDN39a4SQnwCe+bHqjyHKVn3C8z4IoAcasUgWvOlYmnd9K+HN5YrIuKgLcAN15op6lfiXkw18LzI5LTAqrFwsEClYqXpXIF3c9q9dJOMqlJK8YCwd9gACy1okAa83qNiKVNIDvyJuhGq6n/vue+QA9jC+cB2q7iH7goPEXVbpCEvzHYAEn40ZiTyyo+xPA5WgBBSPvnh8XiSWX2tie1QEKdb2fLcwJUJXRLQ6anG7l6/+TORh0BDxkcARIA2HUKqTboLF84b8rIe3pWYVqEOIQy77Uo2mJD2h/hgOgFlB8WLdUw2YAN6TqlQ//GgbfzsG3eorgA72EVCkL0eeV0VMykZ9BbqVWGHp/rPRkjKyrAi/h/77zw4B9i4qqrBCR949HfkBFAGUpE8Ttz13YdI9ZaXaS8pcSypE6RBZxq0bxvluH17AeA7kPWpuAbmcDnSnHtB/7x0YZMYe9kQ/siH9kQ/shwO5Mzw1DlaeYRnze7g2LPdQwyHjDluDQ6iZssMFyVR2PcKT50F+695oYc5UD3txewLOZ6ZfW8qILYpcQGQBye42+A70eQhOT54ZHjwnwDITm9yaAtCiZVUiP6P4VTRqydaeFcgHqyvpbOFf6d5ejmISlix3MMaMiUvuSRSnwMSOcAWSHRWdb8VrefvqEWidsaJMZsZ/CVK5KBIfPhb0AAR2ewau0KrmWDMmnjaNyTLiMDylFO0Bw63u1/6PAOeN/GZL63T8MamEes7erKvURm0L9w6jzC+wIyVmBDBn83sbl1OlrOiFxFwC4L26587E8Yn6L9cdAxKENa+nz004/92jO6lOlAEXO51GYpTurbQTpPem15S75gRbI/9YLuOOCUmj0690NHV08mbsJe/7Ahi0Hs01czLaAHNX2bKZANGYHOfY4Ivo2Q6vzucFnfQFylrdd0AL9dUEOPJadp1GyIbiLzCgC3BXvSwyrjimMxIYRVzT3/tQ6aoQgckFARgABVREeuJgt6JJH7VwLcolV/IuWvjwYB98FaAjPzWosPUL5WKLk0wWtIJMt9T8fvKnrGlLhb6n4/SBUF8f4iMrJ7zQAOZx27STPzvjBBsWQziIvNYNQFUWmAAAAAAABpWcWLEq5bNjygteFwgubrLEJuEBLgtaXhnsfgQ///b3+iMXooslAs1OSJGV6+AAAAAFAfgKAAAAAAAAAAAAL7oMU7MVuWuc057Tnoya2SktO8tHmjZFsAAMqIDuT0NN+qQzmoikljgI/4OmT+eTyuoyr8fsi72OoHeVRSo5lpyhS7eCGwdrOSlymMfkSAE/zMJpHCZAO1mE5F5xAnWrBbiWvkpcoAAGlL1nr7oqsRS1Pm0D/kIbcbMkdmgKoF1xZtCJNMBrYA1zpTiV0DLZAAioEEBd9LW2GEyTR3/Jc5K62bo76foPeQ5zKWyg6CM0M/6KnQ408CNSRMjDatwDxEYqaRc6lBPKkKjtOC7CtQQ6KLW4poqENekcyOPdkdlIYfoS7H6YxefjtpFRvc5MVMieeEq+uAb2i0tB9txVJso8AwKiRfQX36W3aMFh9QanAD6RSBh0pd3F2raVjOhv8LS7Yhi37FRIC6Aj1TnOHhMX+Yy3MyfwdH26ORU9xAo2hUm381KiRT+F0AXrskI3cXf4I29zTR0OMrV1nTf71v50WAGdYCHtr9D4mGP4XjyWqoIL2YI9hAi3wC1Gl7MKoAwj/IAPKR+roAOS00Tl8mnNEwuuVkTMkjeAUGlqPdoonNuoLmw/gFfsyvixbGYJWkjd7ujF3WBywgVOw+F+Z4wyYHKq6TX1dIwq5BgTUzdWl33xTzKBthCnJ73LmLAHZ7X5+3OeTj7s6MdUN0RiuEqMTdhB5j9nK2cpkjIE3JJHVUrdthZ2PQDJaVEcgAQQiV1C47eF131RsRQMQgOrEj9eZCBIXM2ToDphkwAA6g2fAY3QDk3ScMagqNMz7Y8pgJ8/F64Hd75bNcAezex9zx0YZuT4XlJOg2Y5qweW7n63QHdHEG2Xq5cgoxJye5wpca3pVhj56576atG7RuzOLo4amzjRQReuLCuOvlGBKpmbTXNBi+2834Hy+DRApls2Ko3oAg7tgACgkPqCKQe4Z6OOD4SBmKpCueT/WyAnOjRfnrSTn3oqGgAGjrCGLotR8OOHN6saaqauL//XT/MO7UGRLcIGv3AS7vE3wY4nPL2YuBabsSakeULqUy4VTwxEZZTeEnxcs2R/99eiyMwpNtKNTNE+m7+/S8SK/hqCHqiHnhhjKLE5EqofCSPiUh7fC9PtDJP8kC973ENvaDsw/Iiic0jkEhvRcBqKkhLsYzlN4PskXPQmHxGAZtI4yNCs/g7KIgJisvXY0T2a7Skvt3WglRdqbfs19IfrGCdB2t65IIoRyw2pJhkQ7Zp16e3oabQV2fuGYBBKYvAxN7PJr1Ei8Y83vTZ1BqvhII+OombRvdLqiA+IToCSTNt1l9pEhLO37cox7xl+Q8Q7U/n9bNRbGaQsDK2Kb1PijWKwByoZ/x0vo9Mn+1wqb1/xcifpRM46wgExCRpOVvcK/FsyNppqu0sZz5hfSgpzUYr/YPLLsrA6HFxXPJlmdaviV4Fjg0qei9GwkED1lyccvLbyUmHPcgjnIKS57Z+AEH4UXFJ6mTnC4xdfY9aE/1qgE/tNQGoQLavTWs3t9lC+gaRNHDH+SlGZsUAlRcKgjDcp/hjp31ksXVvbEtP2gK/SSFfvVUveLD7nTGvcFHB8mGinMydchsazE6f+qFpDirAl0Wik24hzuyam6kMUBhcPc4eQKrVgk+eI/iJ76mLugPUcImGHjpRHqE1BsgjM+adlg21AQ0zsXRZ/qPIUgo3iOHjeCKI7OLOyO9abgwIH7mPUCApmDZZu4pun8bEzKBz9hMdAtgedKvcGB7GQXqTA0ory/xwuRG7UWIt+mNlZQJQKvPJAshKIV4sQVXY01Gi2rqAQrs6qwgVoCtcjr07e1tNBp+R02oVDrEiJAIYaBYAK1uvDBA3uFrbGlt1bbNzjUpZ2ZuQx/dHs1OcTZAoYzj1JicBlS0+OGYYAbhvkRZW7HyBqe8ntj0hJ42ffc5RUNoKOvixOZ+6kGM8RQPAQyOnL00kO7hYg5RTQW2tgtMWAaxfeI9dUo1plr5RH7mTjYpavQ/S6Y1/QA9qktgW2ozyjQ0MzUVLOts7NLsdJAji+Od4jtOm7x/NNkksdqp+MwkJLtF9gR0K0Bs0q0j8Ik0jGBZUv/y3pP0VBudBvtaEnjFSV1a1Jo2O8EA3v6jFkmCfRULn38o62t4SPMT9jCIe/mIqdxXE4UwGjq/t0S4964qqmvFqxsv2oCQlWn5ICYDOy2YT59E08B5+NNj22EBZHUuUSJQqxTcOMqfAI+tlrfXtoVJ1TgO4XMfPUA+tvG/jMkcjvJzEBsHSNSrpRvuc1aB9xXWNxjmHqo7Ch1STjIacNQ8hX9UlRoW5vv9iMPv8AKv6U/vhVGQ+nu7k9Q948he++49wwqNgrWwJdM9zEv7tN1ulqkO1J2G+nhJ3WI13c/4TRUNVzEK795/slPAFt3auYWLpnGtEZgcxP2IFkRJ+YGRAT4ZO880f9DUwFASD/XFjG2Q+GTz0NVsq7G8wvchFQqQ0yvJIMWjBJ5jjW/cynOl7C3WRcSMiJ8i4dQA8ezM1vQTFPnX9N/KeEEwwVxR3r4rkz/XGiNNO+09cTSlA0kZ/jsuq/xh4mIuDZ4O7c/hRoL1pzhLIm5ufQakGt/HQ0z7jl7wsQ7Sqcn7Z0uiExoLYr/1eJE0DNfuKK8pplBgYIhlugFyBBFXfOi1Vo6IlXK0DHdvR4NtwPN0xxOPnSRvhaV/Pew3XJpsCzgk5h8VjHwhAz/N2IrZwxfE4LLodk9E1ESgWOtUc4DfVakq5Asxk+OdDlxcZvmcZ4xtqfbCJeUg4CyTg3cr4ITWUbGj7nHNAFEsOoUD5CYsV3xsiZBOwAeZNnQomMOYTEDVgsOGrWulIXTkYAKPtWS98cF6DOyRjEFE19Ch2ezKQ3ufOtkhTLlAi5eN7BT/42EtRYB+WiAxrHGx+c0l2CnXu1p861F2LWtSQDHUot0EhHJdvkS119GryFgF5XfAwZoKWzi5zfD8zf/04qU9QOFJplsyiudwDTBeGZq3U8j3mcn+H8TXpV7/vN60BopdluF26LhgV0RsXs9JuWgKhFXafy9LugwAmRVDTiQLGoooM8lqb+dXrOfPJQHD6p9t3gumhz1rJhK2qgdxcn0FDLZpgSTFCEduLkmlUXifrv4MNJifVDlbMInLxDvTM3NWLqTWggmMHilF/Dy4g0u/Tj+LbW4bR/iqhTMPQZt7QtGQrLhv6O6q5bXD9gaD07ysjj9x/RBkgXIIeMFEQmo4vl1I5nLSJ+14Ktvbpnvbb7khqnXHz3/j0h+VHryXlRC11ZVffadvl00OhiXxA0kl848qeEwq4+4YWl/myV7ZHonOqLTP4RDDS4/EuVS/XHHrVvR5A0jsRh4lgKjLEJH09lpkz9U8iqwZWy+nmBOO9w4Cj7pWJ172LREpP6Oe1/vLhv7MfwxT2oWyYgrKUmkMm7LVi6sWifR+QDVG2r4wGHAZc22fRLOcLeAqCkIaznMTm2HG48u5iDwaATunOoYkrmcBd0Jkp/TXAaRe2/GBp8lT7vYLb6HLwKBt8hiMdB2zLpAK1ESVC81JipPP7xKQTXKY0wEr1K/JpAHK5Krusr1TZrRCsWucun6NjXYBHOlzKEu5vvBVuUqrZGfl5aJS1GsbOp21Tw75xIpYXuJxefa/WOzGN9VFxOQmnmpgeeo8NQno2dSigi/oYnj6wVql2X5R94Py8EtwG1MGspttewuNeK7usxGSXK8N8XgV7wJGNAc1PEzMTEoLNBoFFGzXb6AorpDVW6EA4Ji+aQXSKbtVRIocJUXjpmjzuZBJZkGIPAUtkqPrxzzTha8tL18neNlHuqdgxL2KEEGjg8vuvVLnsLPik+EdnfZVt/dZ230TbaxWHCraEdGc2Fj03XrJ3wzX7erCEunRGrCUSG+S3B96PgF3rZIEklFc3Zr0552W0nmqjIh32NSx7vCwTWzuXuXytVThggD7UyfgsdkHTDEhkMHkzgd/L+bzUnnnj/FLz0azOY4Y6oy1wvc7kYx0Wwaf1cowbSN43DJKtHj2BBAH6TTdPXdAN6UJhuAWC3xtQgAwsSJEeZTCoc1B7kxpSrZrvSLLUNjZFhoCNEXuZ+zGbNCPGv6jZjBmL3LwdD9eZlj+tYJXc/tA2PncubmfBPu+0fj/1M6GtnZs7n0iGWbi9n3iWf1pk+vy/umbIpC8d0AgfHB3nhJ5dDczcRqbJ1c1oSVYCtLoRS91qiPgZZW3fsRIkLdMiz5wDckJC/CfOUaYZldru1jM7rb1yXqkq7uKtNxfrV/h7sYHE440Hzbl4zdcbTsB0Wu/6GduHQ7YhIp2RPvmh5a8lX984XwsGjajV/kwC666JgPyX3snrK1Ifz+z6l95p+HmiyyZ6IZ5ZUNJpiJkb+LhchHQ8gc9PEsZrPFuR8iPu+UBlFLYNCgl2Zxfv1AXymZB6JRZk+/qnaw6IGHaPS1jR5eFd509GfaYYA7ICxH9EoNhPU291LSfjkwE0wnFKVkbmAODg8wsicB8z1XfOhsG8AfNdWWE58T2kwP12BYRTObO7P4HJTTOjqzL6+HE2zCXVoVK1l/wxtdc5N9nz82Uy3Ya6cw8fr4UzHMdhyvyq1K8vodJPko/NRqZ8tVh0PXhfwUvzO7IXfPAWBEMxZAcg6oBve4JqQKVOyOBptkOSybwvc+u1qow8Cg+PS/PurDA53aNu6Sib+Y5QpDqese7Xf76gr5MZeZLVxZ+iWKgfDqU7JlRxYl8a8efgT5bvp4pSLShUqA90+t+saD8ZOYEX0xPUwna+a4IOUGA4wVJ5HwpUHjk5xMHdRmU/181/9Xx5gJYfGzgNONGyj9IM+cVatnVba3/26xUPOeMGsSTp6vSH9+9DR/kM+/h8lzvMhwbASMEObxerqfYGtbj8CLMOscnCYVdxyFYGZswofakYD/CKMt+nDxpZmh8k3V+CgGsg+vab6ToxMRJYi/5ptkCr29WBpcaWuqy95feq8Zgk34JyHW2ivO1t4BgVoAAAAAAAACp/FjBwD5I6I8FnSqRYFFk5ghu0kBoCUHDY4kro6g0mOgAAAAAAAARVhJRroAAABFeGlmAABJSSoACAAAAAYAEgEDAAEAAAABAAAAGgEFAAEAAABWAAAAGwEFAAEAAABeAAAAKAEDAAEAAAACAAAAEwIDAAEAAAABAAAAaYcEAAEAAABmAAAAAAAAAEgAAAABAAAASAAAAAEAAAAGAACQBwAEAAAAMDIxMAGRBwAEAAAAAQIDAACgBwAEAAAAMDEwMAGgAwABAAAA//8AAAKgBAABAAAADAQAAAOgBAABAAAAAwMAAAAAAAA=;" vertex="1" parent="1">
          <mxGeometry x="90" y="490" width="618.1" height="460" as="geometry" />
        </mxCell>
      </root>
    </mxGraphModel>
  </diagram>
</mxfile>
